# Blender3D v246 OBJ File: 
# www.blender3d.org
o group01_None_group01_None.001
v 0.030723 0.171509 -0.063190
v 0.055837 0.167532 -0.047090
v 0.029478 0.171509 -0.033119
v 0.051496 0.308618 -0.053126
v 0.068937 0.305856 -0.041945
v 0.059683 0.361680 -0.052787
v 0.105115 0.354592 -0.040448
v 0.078859 0.485968 -0.051994
v 0.125171 0.478744 -0.039618
v 0.116231 0.733801 -0.029529
v 0.054593 0.167532 -0.017019
v 0.068073 0.305856 -0.021063
v 0.104250 0.354592 -0.019566
v 0.124307 0.478744 -0.018736
v 0.116231 0.733801 -0.029529
v 0.028234 0.171509 -0.003049
v 0.049768 0.308618 -0.011362
v 0.057955 0.361680 -0.011023
v 0.077130 0.485968 -0.010229
v 0.003120 0.175487 -0.019149
v 0.032327 0.311380 -0.022543
v 0.012523 0.368769 -0.023362
v 0.030817 0.493192 -0.022605
v 0.116231 0.733801 -0.029529
v 0.004364 0.175487 -0.049220
v 0.033191 0.311380 -0.043425
v 0.013387 0.368769 -0.044244
v 0.031682 0.493192 -0.043487
v 0.104264 0.355411 -0.023966
v 0.104682 0.355411 -0.034047
v 0.137995 0.352207 -0.032668
v 0.137577 0.352207 -0.022587
v 0.169182 0.477710 -0.021279
v 0.169599 0.477710 -0.031360
v 0.122846 0.478810 -0.033295
v 0.122429 0.478810 -0.023214
v 0.186290 0.328992 -0.030669
v 0.185873 0.328992 -0.020588
v 0.209810 0.489808 -0.019598
v 0.210227 0.489808 -0.029679
v 0.227593 0.292564 -0.028960
v 0.227176 0.292565 -0.018879
v 0.240021 0.513725 -0.018348
v 0.240439 0.513724 -0.028429
v 0.267756 0.217453 -0.017200
v 0.268173 0.217453 -0.027281
v 0.295161 0.182611 -0.019432
v 0.258644 0.647651 -0.017577
v 0.259061 0.647651 -0.027658
v 0.247560 0.639219 -0.028134
v 0.247142 0.639219 -0.018053
v 0.257655 0.598864 -0.027716
v 0.257238 0.598863 -0.017635
v 0.255633 0.546088 -0.027800
v 0.255215 0.546088 -0.017719
v 0.252403 0.253954 -0.017835
v 0.252820 0.253954 -0.027916
v 0.274027 0.707024 -0.020306
v 0.268152 0.667138 -0.027282
v 0.267734 0.667138 -0.017201
v 0.330603 0.240431 -0.017965
v 0.286173 0.257486 -0.016438
v 0.346265 0.289057 -0.017317
v 0.298304 0.296448 -0.015936
v 0.355643 0.336613 -0.016929
v 0.307374 0.342009 -0.015560
v 0.361650 0.388772 -0.016680
v 0.312311 0.400460 -0.015356
v 0.361372 0.439861 -0.016692
v 0.312487 0.441269 -0.015349
v 0.355116 0.491874 -0.016951
v 0.304854 0.497579 -0.015665
v 0.347937 0.537905 -0.017248
v 0.297060 0.539621 -0.015987
v 0.330033 0.593760 -0.017989
v 0.283288 0.582587 -0.016557
v 0.306151 0.650540 -0.018977
v 0.271347 0.610976 -0.017051
v 0.286590 0.257486 -0.026519
v 0.298721 0.296448 -0.026017
v 0.307791 0.342009 -0.025641
v 0.312728 0.400460 -0.025437
v 0.312904 0.441269 -0.025430
v 0.305272 0.497579 -0.025746
v 0.297477 0.539621 -0.026068
v 0.283705 0.582587 -0.026638
v 0.271764 0.610976 -0.027132
v -0.020537 0.376708 -0.039228
v 0.012190 0.369706 -0.037874
v 0.011773 0.369705 -0.027793
v -0.020954 0.376708 -0.029147
v 0.032062 0.492841 -0.037052
v -0.012845 0.505906 -0.038910
v -0.013262 0.505907 -0.028829
v 0.031644 0.492841 -0.026971
v -0.073580 0.369154 -0.041424
v -0.073997 0.369154 -0.031342
v -0.047935 0.529706 -0.040362
v -0.048352 0.529706 -0.030281
v -0.123937 0.346893 -0.043507
v -0.124354 0.346893 -0.033426
v -0.069531 0.561630 -0.041256
v -0.069948 0.561630 -0.031175
v -0.222039 0.262544 -0.040835
v -0.185264 0.287531 -0.046045
v -0.185681 0.287531 -0.035964
v -0.038499 0.683429 -0.039972
v -0.046923 0.694940 -0.040320
v -0.047340 0.694940 -0.030239
v -0.038916 0.683429 -0.029891
v -0.060285 0.648001 -0.040873
v -0.060703 0.648000 -0.030792
v -0.074263 0.597072 -0.041452
v -0.074680 0.597073 -0.031371
v -0.159626 0.317697 -0.044984
v -0.160043 0.317697 -0.034903
v -0.050134 0.716264 -0.030355
v -0.049717 0.716264 -0.040436
v -0.043841 0.756150 -0.033461
v -0.238404 0.328370 -0.041512
v -0.191175 0.331259 -0.036192
v -0.238682 0.379460 -0.041524
v -0.190999 0.372069 -0.036184
v -0.233290 0.427631 -0.041300
v -0.185915 0.418246 -0.035974
v -0.223298 0.479175 -0.040887
v -0.173007 0.475464 -0.035440
v -0.207635 0.527800 -0.040239
v -0.160875 0.514427 -0.034938
v -0.185995 0.575502 -0.039343
v -0.136627 0.565810 -0.033934
v -0.165278 0.617221 -0.038486
v -0.116525 0.603540 -0.033102
v -0.131374 0.665070 -0.037083
v -0.090445 0.640346 -0.032023
v -0.091493 0.711995 -0.035433
v -0.070505 0.663809 -0.031198
v -0.190758 0.331259 -0.046273
v -0.190582 0.372069 -0.046265
v -0.185498 0.418246 -0.046055
v -0.172589 0.475464 -0.045521
v -0.160458 0.514427 -0.045019
v -0.136210 0.565810 -0.044015
v -0.116108 0.603540 -0.043183
v -0.090028 0.640346 -0.042104
v -0.070088 0.663809 -0.041279
v -0.083864 -0.570001 -0.059352
v -0.068426 -0.572429 -0.052117
v -0.084794 -0.570001 -0.036871
v 0.030494 0.171214 -0.054619
v 0.029563 0.171214 -0.032138
v 0.045931 0.168786 -0.047385
v -0.083864 -0.570001 -0.059352
v -0.068426 -0.572429 -0.052117
v 0.045931 0.168786 -0.047385
v -0.062577 -0.573435 -0.035951
v 0.051781 0.167780 -0.031219
v 0.051781 0.167780 -0.031219
v -0.062577 -0.573435 -0.035951
v -0.069742 -0.572429 -0.020324
v 0.044616 0.168786 -0.015592
v -0.069742 -0.572429 -0.020324
v 0.044616 0.168786 -0.015592
v -0.085724 -0.570001 -0.014390
v 0.028633 0.171214 -0.009658
v 0.028633 0.171214 -0.009658
v -0.085724 -0.570001 -0.014390
v -0.101162 -0.567573 -0.021625
v 0.013196 0.173642 -0.016892
v -0.101162 -0.567573 -0.021625
v 0.013196 0.173642 -0.016892
v -0.107012 -0.566567 -0.037790
v 0.007346 0.174648 -0.033058
v 0.007346 0.174648 -0.033058
v -0.107012 -0.566567 -0.037790
v -0.099846 -0.567573 -0.053417
v 0.014511 0.173642 -0.048685
v -0.099846 -0.567573 -0.053417
v 0.014511 0.173642 -0.048685
v 0.030494 0.171214 -0.054619
v -0.083864 -0.570001 -0.059352
vn -0.152477 -0.988287 -0.006310
vn 0.537392 -0.019538 -0.843106
vn 0.537396 -0.019539 -0.843104
vn 0.529524 -0.076303 -0.844856
vn 0.237822 -0.147043 -0.960114
vn 0.253225 -0.032896 -0.966848
vn 0.256846 -0.035037 -0.965817
vn 0.264759 0.047379 -0.963150
vn 0.994557 -0.095718 0.041157
vn 0.802026 -0.596367 0.033190
vn 0.986335 -0.159616 0.040817
vn 0.998588 0.033368 0.041324
vn 0.465894 -0.019539 0.884625
vn 0.465899 -0.019539 0.884622
vn 0.403826 -0.326019 0.854773
vn 0.176406 -0.033497 0.983747
vn 0.172242 -0.034407 0.984454
vn 0.184275 0.047379 0.981732
vn -0.152476 -0.988287 -0.006310
vn -0.519920 0.132818 0.843826
vn -0.519919 0.132817 0.843827
vn -0.257083 0.033497 0.965809
vn -0.550907 -0.178471 0.815261
vn -0.253458 0.031384 0.966837
vn -0.240023 0.112953 0.964174
vn -0.977080 0.208995 -0.040434
vn -0.944402 -0.326463 -0.039082
vn -0.988499 0.145591 -0.040907
vn -0.988499 0.145591 -0.040906
vn -0.942020 0.333286 -0.038983
vn -0.448422 0.132817 -0.883899
vn -0.192786 -0.080494 -0.977934
vn -0.457913 0.076303 -0.885716
vn -0.176643 0.031958 -0.983756
vn -0.172476 0.032896 -0.984464
vn -0.159539 0.112953 -0.980708
vn -0.095568 -0.995415 -0.003996
vn -0.095568 -0.995415 -0.003994
vn 0.023485 0.999724 0.000965
vn 0.023474 0.999724 0.001006
vn -0.988478 0.145751 -0.040849
vn -0.988473 0.145758 -0.040928
vn -0.432568 -0.901422 -0.017959
vn -0.432561 -0.901427 -0.017902
vn -0.284912 0.958481 -0.011782
vn -0.284909 0.958482 -0.011790
vn -0.660578 -0.750260 -0.027341
vn -0.660574 -0.750264 -0.027302
vn -0.619831 0.784316 -0.025672
vn -0.619841 0.784308 -0.025629
vn -0.786588 -0.616620 -0.032542
vn -0.590403 0.806738 -0.024445
vn -0.590404 0.806737 -0.024443
vn -0.969230 -0.242864 -0.040127
vn -0.969230 -0.242872 -0.040094
vn -0.998412 0.038317 -0.041284
vn -0.998409 0.038329 -0.041350
vn -0.904292 0.425268 -0.037468
vn -0.904295 0.425263 -0.037449
vn -0.920876 -0.387991 -0.038083
vn -0.920877 -0.387987 -0.038102
vn -0.836219 -0.547304 -0.034569
vn -0.836221 -0.547302 -0.034583
vn -0.987441 0.152607 -0.040875
vn -0.905334 0.423043 -0.037478
vn -0.905336 0.423039 -0.037469
vn -0.041347 0.000000 0.999145
vn 0.027613 -0.042260 0.998725
vn 0.022992 -0.029602 0.999297
vn 0.026028 -0.021706 0.999426
vn 0.025574 -0.020841 0.999456
vn 0.026720 -0.013425 0.999553
vn 0.026823 -0.013574 0.999548
vn 0.027456 -0.007926 0.999592
vn 0.025495 -0.005648 0.999659
vn 0.026921 0.000372 0.999637
vn 0.027457 -0.000297 0.999623
vn 0.027704 0.008307 0.999582
vn 0.026626 0.009216 0.999603
vn 0.026786 0.010629 0.999585
vn 0.025186 0.012339 0.999607
vn 0.025488 0.021427 0.999445
vn 0.024033 0.027502 0.999333
vn 0.074413 0.065739 0.995058
vn 0.031507 -0.033980 0.998926
vn 0.027992 0.024019 0.999320
vn 0.041347 0.000000 -0.999145
vn 0.177135 -0.083704 -0.980621
vn 0.168454 -0.058765 -0.983956
vn 0.174482 -0.043089 -0.983717
vn 0.173612 -0.041378 -0.983945
vn 0.175918 -0.026659 -0.984044
vn 0.176118 -0.026953 -0.984000
vn 0.177385 -0.015739 -0.984016
vn 0.173586 -0.011221 -0.984755
vn 0.176366 0.000738 -0.984324
vn 0.177408 -0.000590 -0.984137
vn 0.177865 0.016496 -0.983917
vn 0.175766 0.018304 -0.984262
vn 0.176068 0.021108 -0.984152
vn 0.172946 0.024511 -0.984626
vn 0.173437 0.042541 -0.983926
vn 0.173437 0.042542 -0.983926
vn 0.170514 0.054595 -0.983842
vn 0.170516 0.054594 -0.983841
vn 0.264843 0.128128 -0.955741
vn 0.184873 -0.067313 -0.980454
vn 0.178258 0.047656 -0.982829
vn -0.208880 -0.977903 -0.008685
vn 0.278908 0.960249 0.011538
vn 0.278914 0.960246 0.011577
vn 0.986359 -0.159456 0.040856
vn 0.986362 -0.159451 0.040799
vn 0.140753 -0.990028 0.005769
vn 0.140741 -0.990029 0.005824
vn 0.560508 0.827824 0.023193
vn 0.560509 0.827823 0.023200
vn 0.403694 -0.914741 0.016706
vn 0.403687 -0.914744 0.016742
vn 0.827344 0.560652 0.034238
vn 0.827344 0.560650 0.034246
vn 0.564113 -0.825367 0.023353
vn 0.806043 0.590917 0.033335
vn 0.806045 0.590914 0.033341
vn 0.850892 -0.524161 0.035196
vn 0.850890 -0.524163 0.035207
vn 0.963455 -0.264885 0.039883
vn 0.963458 -0.264878 0.039847
vn 0.990342 0.132463 0.040944
vn 0.990342 0.132452 0.040983
vn 0.761051 -0.647927 0.031507
vn 0.761052 -0.647926 0.031500
vn 0.632317 -0.774267 0.026206
vn 0.632323 -0.774263 0.026178
vn 0.987443 -0.152607 0.040839
vn 0.990664 0.130022 0.040974
vn 0.990664 0.130020 0.040978
vn -0.119567 -0.019513 0.992634
vn -0.111409 -0.008831 0.993735
vn -0.111923 -0.000385 0.993717
vn -0.111234 0.000303 0.993794
vn -0.110095 0.007719 0.993891
vn -0.110238 0.007609 0.993876
vn -0.109141 0.013185 0.993939
vn -0.106596 0.014766 0.994193
vn -0.106135 0.020935 0.994131
vn -0.106845 0.020459 0.994065
vn -0.104483 0.028736 0.994111
vn -0.103186 0.029278 0.994231
vn -0.102910 0.030673 0.994218
vn -0.100877 0.031822 0.994390
vn -0.098412 0.040576 0.994318
vn -0.098413 0.040576 0.994318
vn -0.095190 0.045928 0.994399
vn -0.095189 0.045928 0.994399
vn -0.131186 0.097514 0.986550
vn -0.120787 -0.010444 0.992624
vn -0.099999 0.043800 0.994023
vn -0.114385 -0.038650 -0.992684
vn -0.098352 -0.017531 -0.994997
vn -0.099373 -0.000765 -0.995050
vn -0.098013 0.000601 -0.995185
vn -0.095760 0.015329 -0.995286
vn -0.096043 0.015109 -0.995263
vn -0.093866 0.026182 -0.995241
vn -0.088834 0.029336 -0.995614
vn -0.087906 0.041581 -0.995261
vn -0.089312 0.040631 -0.995175
vn -0.084614 0.057061 -0.994779
vn -0.082046 0.058148 -0.994931
vn -0.081497 0.060914 -0.994810
vn -0.077468 0.063211 -0.994989
vn -0.072556 0.080560 -0.994106
vn -0.066154 0.091171 -0.993635
vn -0.135880 0.190060 -0.972324
vn -0.116810 -0.020689 -0.992939
vn -0.075684 0.086902 -0.993338
vn -0.152475 -0.988287 -0.006310
vn 0.152477 0.988287 0.006310
vn 0.416077 -0.058400 -0.907452
vn -0.152476 -0.988287 -0.006311
vn 0.928100 -0.140991 -0.344604
vn -0.152476 -0.988287 -0.006309
vn 0.152477 0.988287 0.006309
vn 0.896454 -0.140991 0.420108
vn 0.896454 -0.140991 0.420109
vn 0.339678 -0.058400 0.938727
vn -0.152479 -0.988287 -0.006310
vn -0.416077 0.058400 0.907452
vn -0.928100 0.140991 0.344604
vn -0.896454 0.140991 -0.420109
vn -0.896454 0.140991 -0.420108
vn -0.339678 0.058400 -0.938727
usemtl (null)
s off
f 1//1 2//1 3//1
f 1//2 4//2 5//2
f 1//3 5//3 2//3
f 4//4 6//4 5//4
f 6//5 7//5 5//5
f 6//6 8//6 9//6
f 6//7 9//7 7//7
f 8//8 10//8 9//8
f 2//1 11//1 3//1
f 2//9 5//9 11//9
f 5//9 12//9 11//9
f 5//10 7//10 13//10
f 5//10 13//10 12//10
f 7//11 9//11 13//11
f 9//11 14//11 13//11
f 9//12 15//12 14//12
f 11//1 16//1 3//1
f 11//13 12//13 17//13
f 11//14 17//14 16//14
f 12//15 13//15 17//15
f 13//16 18//16 17//16
f 13//17 14//17 19//17
f 13//16 19//16 18//16
f 14//18 15//18 19//18
f 16//19 20//19 3//19
f 16//20 17//20 20//20
f 17//21 21//21 20//21
f 17//22 18//22 22//22
f 17//23 22//23 21//23
f 18//22 19//22 22//22
f 19//24 23//24 22//24
f 19//25 24//25 23//25
f 20//19 25//19 3//19
f 20//26 21//26 26//26
f 20//26 26//26 25//26
f 21//27 22//27 26//27
f 22//27 27//27 26//27
f 22//28 23//28 28//28
f 22//29 28//29 27//29
f 23//30 24//30 28//30
f 25//19 1//19 3//19
f 26//31 1//31 25//31
f 4//31 1//31 26//31
f 26//32 27//32 6//32
f 26//33 6//33 4//33
f 27//34 28//34 6//34
f 28//35 8//35 6//35
f 28//36 10//36 8//36
f 29//37 30//37 31//37
f 29//38 31//38 32//38
f 33//39 34//39 35//39
f 33//40 35//40 36//40
f 36//41 35//41 30//41
f 36//42 30//42 29//42
f 32//43 31//43 37//43
f 32//44 37//44 38//44
f 39//45 40//45 34//45
f 39//46 34//46 33//46
f 38//47 37//47 41//47
f 38//48 41//48 42//48
f 43//49 44//49 40//49
f 43//50 40//50 39//50
f 45//51 46//51 47//51
f 48//52 49//52 50//52
f 48//53 50//53 51//53
f 51//54 50//54 52//54
f 51//55 52//55 53//55
f 53//56 52//56 54//56
f 53//57 54//57 55//57
f 55//58 54//58 44//58
f 55//59 44//59 43//59
f 56//60 57//60 46//60
f 56//61 46//61 45//61
f 42//62 41//62 57//62
f 42//63 57//63 56//63
f 58//64 59//64 60//64
f 60//65 59//65 49//65
f 60//66 49//66 48//66
f 29//67 32//67 33//67
f 29//67 33//67 36//67
f 32//67 38//67 39//67
f 32//67 39//67 33//67
f 38//67 42//67 43//67
f 38//67 43//67 39//67
f 45//68 47//68 61//68
f 45//69 61//69 62//69
f 62//70 61//70 63//70
f 62//71 63//71 64//71
f 64//72 63//72 65//72
f 64//73 65//73 66//73
f 66//74 65//74 67//74
f 66//75 67//75 68//75
f 68//76 67//76 69//76
f 68//77 69//77 70//77
f 70//78 69//78 71//78
f 70//79 71//79 72//79
f 72//80 71//80 73//80
f 72//81 73//81 74//81
f 74//82 73//82 75//82
f 74//82 75//82 76//82
f 76//83 75//83 77//83
f 76//83 77//83 78//83
f 53//67 78//67 48//67
f 53//67 48//67 51//67
f 55//67 76//67 78//67
f 55//67 78//67 53//67
f 74//67 76//67 55//67
f 43//67 74//67 55//67
f 43//67 72//67 74//67
f 45//67 62//67 56//67
f 56//67 62//67 64//67
f 42//67 56//67 64//67
f 42//67 64//67 66//67
f 42//67 72//67 43//67
f 42//67 70//67 72//67
f 42//67 68//67 70//67
f 42//67 66//67 68//67
f 60//84 77//84 58//84
f 48//85 77//85 60//85
f 78//86 77//86 48//86
f 34//87 31//87 30//87
f 35//87 34//87 30//87
f 40//87 37//87 31//87
f 34//87 40//87 31//87
f 44//87 41//87 37//87
f 40//87 44//87 37//87
f 61//88 47//88 46//88
f 79//89 61//89 46//89
f 63//90 61//90 79//90
f 80//91 63//91 79//91
f 65//92 63//92 80//92
f 81//93 65//93 80//93
f 67//94 65//94 81//94
f 82//95 67//95 81//95
f 69//96 67//96 82//96
f 83//97 69//97 82//97
f 71//98 69//98 83//98
f 84//99 71//99 83//99
f 73//100 71//100 84//100
f 85//101 73//101 84//101
f 75//102 73//102 85//102
f 86//103 75//103 85//103
f 77//104 75//104 86//104
f 87//105 77//105 86//105
f 49//87 87//87 52//87
f 50//87 49//87 52//87
f 87//87 86//87 54//87
f 52//87 87//87 54//87
f 54//87 86//87 85//87
f 54//87 85//87 44//87
f 85//87 84//87 44//87
f 57//87 79//87 46//87
f 80//87 79//87 57//87
f 80//87 57//87 41//87
f 81//87 80//87 41//87
f 44//87 84//87 41//87
f 84//87 83//87 41//87
f 83//87 82//87 41//87
f 82//87 81//87 41//87
f 58//106 77//106 59//106
f 59//107 77//107 49//107
f 49//108 77//108 87//108
f 88//109 89//109 90//109
f 91//109 88//109 90//109
f 92//110 93//110 94//110
f 95//111 92//111 94//111
f 89//112 92//112 95//112
f 90//113 89//113 95//113
f 96//114 88//114 91//114
f 97//115 96//115 91//115
f 93//116 98//116 99//116
f 94//117 93//117 99//117
f 100//118 96//118 97//118
f 101//119 100//119 97//119
f 98//120 102//120 103//120
f 99//121 98//121 103//121
f 104//122 105//122 106//122
f 107//123 108//123 109//123
f 110//124 107//124 109//124
f 111//125 107//125 110//125
f 112//126 111//126 110//126
f 113//127 111//127 112//127
f 114//128 113//128 112//128
f 102//129 113//129 114//129
f 103//130 102//130 114//130
f 105//131 115//131 116//131
f 106//132 105//132 116//132
f 115//133 100//133 101//133
f 116//134 115//134 101//134
f 117//135 118//135 119//135
f 108//136 118//136 117//136
f 109//137 108//137 117//137
f 94//67 91//67 90//67
f 95//67 94//67 90//67
f 99//67 97//67 91//67
f 94//67 99//67 91//67
f 103//67 101//67 97//67
f 99//67 103//67 97//67
f 120//138 104//138 106//138
f 121//139 120//139 106//139
f 122//140 120//140 121//140
f 123//141 122//141 121//141
f 124//142 122//142 123//142
f 125//143 124//143 123//143
f 126//144 124//144 125//144
f 127//145 126//145 125//145
f 128//146 126//146 127//146
f 129//147 128//147 127//147
f 130//148 128//148 129//148
f 131//149 130//149 129//149
f 132//150 130//150 131//150
f 133//151 132//151 131//151
f 134//152 132//152 133//152
f 135//153 134//153 133//153
f 136//154 134//154 135//154
f 137//155 136//155 135//155
f 109//67 137//67 112//67
f 110//67 109//67 112//67
f 137//67 135//67 114//67
f 112//67 137//67 114//67
f 114//67 135//67 133//67
f 114//67 133//67 103//67
f 133//67 131//67 103//67
f 116//67 121//67 106//67
f 123//67 121//67 116//67
f 123//67 116//67 101//67
f 125//67 123//67 101//67
f 103//67 131//67 101//67
f 131//67 129//67 101//67
f 129//67 127//67 101//67
f 127//67 125//67 101//67
f 119//156 136//156 117//156
f 117//157 136//157 109//157
f 109//158 136//158 137//158
f 89//87 88//87 93//87
f 89//87 93//87 92//87
f 88//87 96//87 98//87
f 88//87 98//87 93//87
f 96//87 100//87 102//87
f 96//87 102//87 98//87
f 105//159 104//159 120//159
f 105//160 120//160 138//160
f 138//161 120//161 122//161
f 138//162 122//162 139//162
f 139//163 122//163 124//163
f 139//164 124//164 140//164
f 140//165 124//165 126//165
f 140//166 126//166 141//166
f 141//167 126//167 128//167
f 141//168 128//168 142//168
f 142//169 128//169 130//169
f 142//170 130//170 143//170
f 143//171 130//171 132//171
f 143//172 132//172 144//172
f 144//173 132//173 134//173
f 144//173 134//173 145//173
f 145//174 134//174 136//174
f 145//174 136//174 146//174
f 111//87 146//87 108//87
f 111//87 108//87 107//87
f 113//87 145//87 146//87
f 113//87 146//87 111//87
f 144//87 145//87 113//87
f 102//87 144//87 113//87
f 102//87 143//87 144//87
f 105//87 138//87 115//87
f 115//87 138//87 139//87
f 100//87 115//87 139//87
f 100//87 139//87 140//87
f 100//87 143//87 102//87
f 100//87 142//87 143//87
f 100//87 141//87 142//87
f 100//87 140//87 141//87
f 118//175 136//175 119//175
f 108//176 136//176 118//176
f 146//177 136//177 108//177
f 147//178 148//178 149//178
f 150//179 151//179 152//179
f 153//180 150//180 154//180
f 150//180 155//180 154//180
f 148//181 156//181 149//181
f 152//179 151//179 157//179
f 154//182 155//182 158//182
f 154//182 158//182 159//182
f 156//183 160//183 149//183
f 157//184 151//184 161//184
f 159//185 158//185 162//185
f 158//186 163//186 162//186
f 160//178 164//178 149//178
f 161//179 151//179 165//179
f 162//187 163//187 166//187
f 162//187 166//187 167//187
f 164//188 168//188 149//188
f 165//179 151//179 169//179
f 167//189 166//189 170//189
f 166//189 171//189 170//189
f 168//188 172//188 149//188
f 169//179 151//179 173//179
f 170//190 171//190 174//190
f 170//190 174//190 175//190
f 172//188 176//188 149//188
f 173//179 151//179 177//179
f 175//191 174//191 178//191
f 174//192 179//192 178//192
f 176//188 147//188 149//188
f 177//179 151//179 150//179
f 178//193 179//193 180//193
f 178//193 180//193 181//193
