# Blender3D v246 OBJ File: 
# www.blender3d.org
o gripright_None_gripright_None.006
v 1.723389 0.928288 0.118493
v 1.689870 0.815164 0.117857
v 1.732435 0.925016 0.223810
v 1.698917 0.811891 0.223174
v 1.990235 0.848769 0.199296
v 1.956716 0.735644 0.198659
v 1.981188 0.852041 0.093979
v 1.947670 0.738917 0.093343
v 1.953142 0.862188 -0.232410
v 1.919622 0.749055 -0.233046
v 1.695360 0.938429 -0.207897
v 1.661839 0.825297 -0.208533
v 2.365714 2.149854 0.101275
v 2.107932 2.226096 0.125788
v 2.374761 2.146581 0.206591
v 2.116978 2.222823 0.231104
v 2.323814 2.008440 0.100480
v 2.066031 2.084682 0.124993
v 2.332860 2.005167 0.205796
v 2.075078 2.081409 0.230309
v 2.337053 2.160219 -0.232365
v 2.295156 2.018815 -0.233161
v 2.037373 2.095057 -0.208648
v 2.079271 2.236461 -0.207853
vn -0.954976 0.282444 0.090810
vn 0.085545 -0.030946 0.995854
vn 0.954976 -0.282444 -0.090810
vn -0.085544 0.030946 -0.995854
vn -0.085545 0.030946 -0.995854
vn 0.284083 0.958784 0.005390
vn -0.284083 -0.958784 -0.005391
vn -0.284084 -0.958784 -0.005392
vn -0.085545 0.030944 -0.995854
vn 0.954978 -0.282437 -0.090810
vn -0.954974 0.282451 0.090810
vn -0.954974 0.282451 0.090811
vn 0.085545 -0.030944 0.995854
vn 0.954976 -0.282445 -0.090810
vn -0.954976 0.282445 0.090811
vn 0.085544 -0.030946 0.995854
vn -0.284085 -0.958784 -0.005413
vn -0.284085 -0.958784 -0.005412
vn -0.954976 0.282445 0.090810
vn 0.284083 0.958785 0.005382
vn 0.284083 0.958785 0.005381
vn 0.954973 -0.282443 -0.090838
vn 0.954973 -0.282444 -0.090838
vn 0.284084 0.958784 0.005394
vn -0.284081 -0.958785 -0.005369
vn -0.284082 -0.958785 -0.005369
vn -0.954978 0.282445 0.090785
usemtl (null)
s off
f 1//1 2//1 3//1
f 2//1 4//1 3//1
f 3//2 4//2 5//2
f 4//2 6//2 5//2
f 5//3 6//3 7//3
f 6//3 8//3 7//3
f 9//4 10//4 11//4
f 10//5 12//5 11//5
f 13//6 14//6 15//6
f 14//6 16//6 15//6
f 2//7 8//7 4//7
f 8//8 6//8 4//8
f 7//9 1//9 17//9
f 17//9 1//9 18//9
f 19//10 5//10 7//10
f 19//10 7//10 17//10
f 18//11 1//11 3//11
f 18//12 3//12 20//12
f 20//13 3//13 5//13
f 20//13 5//13 19//13
f 21//5 22//5 23//5
f 21//5 23//5 24//5
f 15//14 19//14 17//14
f 15//14 17//14 13//14
f 14//15 18//15 20//15
f 14//1 20//1 16//1
f 16//2 20//2 19//2
f 16//16 19//16 15//16
f 21//14 13//14 17//14
f 21//3 17//3 22//3
f 22//17 17//17 18//17
f 22//18 18//18 23//18
f 23//19 18//19 14//19
f 23//19 14//19 24//19
f 24//20 14//20 13//20
f 24//21 13//21 21//21
f 9//22 7//22 8//22
f 9//23 8//23 10//23
f 11//24 1//24 7//24
f 11//24 7//24 9//24
f 10//25 8//25 2//25
f 10//26 2//26 12//26
f 2//27 1//27 12//27
f 12//27 1//27 11//27
o right_None.002_right_None.006
v 4.744706 3.762691 -0.597310
v 4.697340 3.773473 -0.018753
v 4.498957 3.017422 -0.603541
v 4.451590 3.028203 -0.024985
v 4.063106 2.381055 -0.044731
v 4.110473 2.370274 -0.623287
v -1.005015 -6.740707 -0.872316
v -1.052383 -6.729925 -0.293760
v -1.345848 -7.172474 -0.309539
v -1.298479 -7.183253 -0.888096
v -1.652748 -7.393930 -0.913174
v -1.700115 -7.383148 -0.334618
v -2.087564 -7.403526 -0.295037
v -2.137231 -7.385559 -0.873222
v 2.318544 7.643443 -0.759801
v 2.368211 7.625476 -0.181615
v 3.191972 7.277114 -0.789927
v 3.144604 7.287896 -0.211371
v 3.834469 6.767335 -0.145190
v 3.881836 6.756556 -0.723746
v 4.411271 6.097033 -0.668110
v 4.363904 6.107814 -0.089553
v 4.696829 5.354276 -0.048254
v 4.744197 5.343495 -0.626810
v 4.857926 4.547295 -0.602662
v 4.810558 4.558077 -0.024105
v 4.697340 3.773473 -0.018753
v 4.744706 3.762691 -0.597310
vn 0.946193 -0.312699 0.083292
vn 0.946193 -0.312700 0.083293
vn 0.853595 -0.514839 0.079479
vn 0.868215 -0.489664 0.080207
vn 0.868214 -0.489664 0.080208
vn 0.829570 -0.552897 0.078222
vn 0.829569 -0.552898 0.078221
vn 0.507271 -0.859863 0.057552
vn 0.507267 -0.859865 0.057555
vn 0.054860 -0.998227 0.023094
vn -0.019690 -0.999375 -0.029364
vn 0.386636 0.922221 -0.004555
vn 0.399198 0.916732 0.015600
vn 0.599893 0.799348 0.034219
vn 0.599891 0.799349 0.034221
vn 0.776629 0.627818 0.051887
vn 0.776628 0.627820 0.051884
vn 0.911280 0.406293 0.067036
vn 0.911280 0.406294 0.067037
vn 0.986593 0.143294 0.078104
vn 0.986593 0.143294 0.078105
vn 0.986381 -0.141766 0.083400
vn 0.986381 -0.141768 0.083397
usemtl (null)
s off
f 25//28 26//28 27//28
f 26//29 28//29 27//29
f 27//30 28//30 29//30
f 27//30 29//30 30//30
f 30//31 29//31 31//31
f 29//32 32//32 31//32
f 31//33 32//33 33//33
f 31//34 33//34 34//34
f 34//35 33//35 35//35
f 33//36 36//36 35//36
f 35//37 36//37 37//37
f 35//38 37//38 38//38
f 39//39 40//39 41//39
f 40//40 42//40 41//40
f 41//41 42//41 43//41
f 41//42 43//42 44//42
f 44//43 43//43 45//43
f 43//44 46//44 45//44
f 45//45 46//45 47//45
f 45//46 47//46 48//46
f 48//47 47//47 49//47
f 47//48 50//48 49//48
f 49//49 50//49 51//49
f 49//50 51//50 52//50
o back_None_back_None.006
v 4.697340 3.773473 -0.018753
v 1.487373 4.726879 -0.429229
v 4.451590 3.028203 -0.024985
v 4.063106 2.381055 -0.044731
v -1.052383 -6.729925 -0.293760
v -1.345848 -7.172474 -0.309539
v -1.700115 -7.383148 -0.334618
v -2.087564 -7.403526 -0.295037
v -2.402678 -7.175358 -0.267810
v -2.576580 -6.808472 -0.192507
v -2.576910 -6.279030 -0.148790
v -1.833699 4.125099 0.516005
v -1.801260 4.877551 0.569608
v -1.600628 5.636164 0.580130
v -1.271584 6.356936 0.554255
v -0.752551 6.965990 0.469936
v -0.078898 7.421821 0.332919
v 0.703466 7.693364 0.152542
v 1.541225 7.762113 -0.058903
v 2.368211 7.625476 -0.181615
v 3.144604 7.287896 -0.211371
v 3.834469 6.767335 -0.145190
v 4.363904 6.107814 -0.089553
v 4.696829 5.354276 -0.048254
v 4.810558 4.558077 -0.024105
vn -0.117847 0.030560 0.992561
vn -0.113654 0.037934 0.992796
vn -0.114405 0.037100 0.992741
vn -0.106873 0.035441 0.993641
vn -0.089036 0.031213 0.995539
vn 0.102610 -0.019238 0.994536
vn 0.077571 -0.011832 0.996917
vn 0.262869 -0.072867 0.962076
vn 0.279518 -0.078838 0.956898
vn 0.286463 -0.081461 0.954622
vn 0.286303 -0.080358 0.954763
vn 0.285740 -0.088805 0.954184
vn 0.283808 -0.095310 0.954133
vn 0.278303 -0.104992 0.954738
vn 0.270857 -0.112936 0.955972
vn 0.261979 -0.118601 0.957758
vn 0.252273 -0.121603 0.959985
vn 0.125867 -0.122348 0.984474
vn 0.001040 -0.085429 0.996344
vn -0.106959 -0.015356 0.994145
vn -0.113724 -0.007483 0.993484
vn -0.118292 0.002159 0.992976
vn -0.120356 0.012915 0.992647
vn -0.119773 0.024053 0.992510
usemtl (null)
s off
f 53//51 54//51 55//51
f 55//52 54//52 56//52
f 56//53 54//53 57//53
f 57//54 54//54 58//54
f 58//55 54//55 59//55
f 59//56 54//56 60//56
f 60//57 54//57 61//57
f 61//58 54//58 62//58
f 62//59 54//59 63//59
f 63//60 54//60 64//60
f 64//61 54//61 65//61
f 65//62 54//62 66//62
f 66//63 54//63 67//63
f 67//64 54//64 68//64
f 68//65 54//65 69//65
f 69//66 54//66 70//66
f 70//67 54//67 71//67
f 71//68 54//68 72//68
f 72//69 54//69 73//69
f 73//70 54//70 74//70
f 74//71 54//71 75//71
f 75//72 54//72 76//72
f 76//73 54//73 77//73
f 54//74 53//74 77//74
o front_None_front_None.006
v 4.744706 3.762691 -0.597310
v 4.498957 3.017422 -0.603541
v 1.437707 4.744846 -1.007414
v 4.110473 2.370274 -0.623287
v -1.005015 -6.740707 -0.872316
v -1.298479 -7.183253 -0.888096
v -1.652748 -7.393930 -0.913174
v -2.137231 -7.385559 -0.873222
v -2.547869 -7.129188 -0.828056
v -2.721771 -6.762299 -0.752753
v -2.722102 -6.232860 -0.709036
v -1.978890 4.171269 -0.044241
v -1.946451 4.923721 0.009362
v -1.745818 5.682334 0.019884
v -1.416776 6.403106 -0.005991
v -0.897742 7.012159 -0.090310
v -0.224089 7.467990 -0.227327
v 0.558276 7.739534 -0.407703
v 1.396034 7.808282 -0.619149
v 2.318544 7.643443 -0.759801
v 3.191972 7.277114 -0.789927
v 3.881836 6.756556 -0.723746
v 4.411271 6.097033 -0.668110
v 4.744197 5.343495 -0.626810
v 4.857926 4.547295 -0.602662
vn 0.114405 -0.029422 -0.992998
vn 0.110652 -0.036120 -0.993203
vn 0.111322 -0.035358 -0.993155
vn 0.104630 -0.033944 -0.993932
vn 0.088471 -0.030254 -0.995619
vn -0.081952 0.013128 -0.996550
vn -0.098238 0.017944 -0.995001
vn -0.261900 0.073372 -0.962302
vn -0.276913 0.078902 -0.957650
vn -0.283054 0.081283 -0.955653
vn -0.282921 0.080284 -0.955777
vn -0.282365 0.087927 -0.955269
vn -0.280617 0.093814 -0.955224
vn -0.275686 0.102622 -0.955754
vn -0.269008 0.109941 -0.956843
vn -0.260986 0.115292 -0.958433
vn -0.252117 0.118298 -0.960439
vn -0.128068 0.122986 -0.984110
vn 0.001181 0.084759 -0.996401
vn 0.104969 0.012686 -0.994395
vn 0.111003 0.005272 -0.993806
vn 0.115002 -0.003634 -0.993359
vn 0.116745 -0.013443 -0.993071
vn 0.116148 -0.023533 -0.992953
usemtl (null)
s off
f 78//75 79//75 80//75
f 79//76 81//76 80//76
f 81//77 82//77 80//77
f 82//78 83//78 80//78
f 83//79 84//79 80//79
f 84//80 85//80 80//80
f 85//81 86//81 80//81
f 86//82 87//82 80//82
f 87//83 88//83 80//83
f 88//84 89//84 80//84
f 89//85 90//85 80//85
f 90//86 91//86 80//86
f 91//87 92//87 80//87
f 92//88 93//88 80//88
f 93//89 94//89 80//89
f 94//90 95//90 80//90
f 95//91 96//91 80//91
f 96//92 97//92 80//92
f 97//93 98//93 80//93
f 98//94 99//94 80//94
f 99//95 100//95 80//95
f 100//96 101//96 80//96
f 101//97 102//97 80//97
f 102//98 78//98 80//98
o gripleft_None_gripleft_None.006
v -1.093518 1.761419 0.386357
v -1.127037 1.648295 0.385721
v -1.084472 1.758146 0.491674
v -1.117990 1.645022 0.491038
v -0.826673 1.681899 0.467159
v -0.860191 1.568775 0.466523
v -0.835719 1.685172 0.361843
v -0.869238 1.572048 0.361207
v -0.863765 1.695318 0.035454
v -0.897286 1.582186 0.034818
v -1.121547 1.771560 0.059967
v -1.155067 1.658428 0.059331
v -0.451193 2.982985 0.369139
v -0.708975 3.059227 0.393652
v -0.442146 2.979712 0.474455
v -0.699928 3.055954 0.498968
v -0.493093 2.841571 0.368344
v -0.750875 2.917813 0.392856
v -0.484047 2.838298 0.473660
v -0.741828 2.914540 0.498172
v -0.479854 2.993349 0.035498
v -0.521751 2.851945 0.034703
v -0.779533 2.928187 0.059216
v -0.737636 3.069591 0.060011
vn 0.284084 0.958784 0.005392
vn -0.954974 0.282452 0.090810
vn -0.284081 -0.958785 -0.005368
vn -0.954978 0.282445 0.090782
usemtl (null)
s off
f 103//1 104//1 105//1
f 104//1 106//1 105//1
f 105//2 106//2 107//2
f 106//2 108//2 107//2
f 107//3 108//3 109//3
f 108//3 110//3 109//3
f 111//4 112//4 113//4
f 112//5 114//5 113//5
f 115//99 116//99 117//99
f 116//99 118//99 117//99
f 104//8 110//8 106//8
f 110//8 108//8 106//8
f 109//9 103//9 119//9
f 119//9 103//9 120//9
f 121//10 107//10 109//10
f 121//10 109//10 119//10
f 120//100 103//100 105//100
f 120//100 105//100 122//100
f 122//13 105//13 107//13
f 122//13 107//13 121//13
f 123//5 124//5 125//5
f 123//5 125//5 126//5
f 117//14 121//14 119//14
f 117//3 119//3 115//3
f 116//19 120//19 122//19
f 116//19 122//19 118//19
f 118//2 122//2 121//2
f 118//2 121//2 117//2
f 123//3 115//3 119//3
f 123//3 119//3 124//3
f 124//18 119//18 120//18
f 124//18 120//18 125//18
f 125//19 120//19 116//19
f 125//1 116//1 126//1
f 126//21 116//21 115//21
f 126//21 115//21 123//21
f 111//22 109//22 110//22
f 111//23 110//23 112//23
f 113//24 103//24 109//24
f 113//24 109//24 111//24
f 112//26 110//26 104//26
f 112//101 104//101 114//101
f 104//102 103//102 114//102
f 114//102 103//102 113//102
o left_None.002_left_None.006
v -2.137231 -7.385559 -0.873222
v -2.087564 -7.403526 -0.295037
v -2.547869 -7.129188 -0.828056
v -2.402678 -7.175358 -0.267810
v -2.576580 -6.808472 -0.192507
v -2.721771 -6.762299 -0.752753
v -2.722102 -6.232860 -0.709036
v -2.576910 -6.279030 -0.148790
v -1.833699 4.125099 0.516005
v -1.978890 4.171269 -0.044241
v -1.946451 4.923721 0.009362
v -1.801260 4.877551 0.569608
v -1.600628 5.636164 0.580130
v -1.745818 5.682334 0.019884
v -1.416776 6.403106 -0.005991
v -1.271584 6.356936 0.554255
v -0.752551 6.965990 0.469936
v -0.897742 7.012159 -0.090310
v -0.224089 7.467990 -0.227327
v -0.078898 7.421821 0.332919
v 0.703466 7.693364 0.152542
v 0.558276 7.739534 -0.407703
v 1.396034 7.808282 -0.619149
v 1.541225 7.762113 -0.058903
v 2.368211 7.625476 -0.181615
v 2.318544 7.643443 -0.759801
vn -0.527988 -0.849040 0.018970
vn -0.579696 -0.810550 0.083435
vn -0.871842 -0.451979 0.188696
vn -0.871845 -0.451975 0.188694
vn -0.968227 -0.021180 0.249176
vn -0.968226 -0.021178 0.249177
vn -0.965612 0.052710 0.254589
vn -0.967273 0.023704 0.252629
vn -0.967273 0.023704 0.252628
vn -0.933864 0.243346 0.262070
vn -0.874748 0.408682 0.260375
vn -0.874747 0.408683 0.260376
vn -0.722064 0.648647 0.240583
vn -0.520052 0.829625 0.203144
vn -0.292229 0.943945 0.153523
vn -0.292230 0.943945 0.153525
vn -0.057137 0.993672 0.096697
vn -0.057138 0.993673 0.096696
vn 0.168320 0.985017 0.037554
vn 0.178135 0.983887 0.015272
usemtl (null)
s off
f 127//103 128//103 129//103
f 128//104 130//104 129//104
f 129//105 130//105 131//105
f 129//106 131//106 132//106
f 132//107 131//107 133//107
f 131//108 134//108 133//108
f 133//109 134//109 135//109
f 133//109 135//109 136//109
f 136//110 135//110 137//110
f 135//111 138//111 137//111
f 137//112 138//112 139//112
f 137//112 139//112 140//112
f 140//113 139//113 141//113
f 139//114 142//114 141//114
f 141//115 142//115 143//115
f 141//115 143//115 144//115
f 144//116 143//116 145//116
f 143//116 146//116 145//116
f 145//117 146//117 147//117
f 145//118 147//118 148//118
f 148//119 147//119 149//119
f 147//120 150//120 149//120
f 149//121 150//121 151//121
f 149//122 151//122 152//122
