# Blender3D v246 OBJ File: 
# www.blender3d.org
mtllib trough.mtl
o object_ac3dmat1
v 0.841390 0.339057 1.245520
v 0.841390 0.057444 1.416300
v 0.841390 0.057444 1.245520
v 0.841390 0.339057 1.416300
v 0.694830 0.339057 1.416300
v 0.694830 0.057444 1.245520
v 0.694830 0.057444 1.416300
v 0.694830 0.339057 1.245520
v 0.841390 0.339057 1.245520
v 0.694830 0.057444 1.245520
v 0.694830 0.339057 1.245520
v 0.841390 0.057444 1.245520
v 0.841390 0.057444 1.416300
v 0.694830 0.339057 1.416300
v 0.694830 0.057444 1.416300
v 0.841390 0.339057 1.416300
v 0.694830 0.339057 1.416300
v 0.841390 0.339057 1.245520
v 0.694830 0.339057 1.245520
v 0.841390 0.339057 1.416300
v 0.841390 0.057444 1.416300
v 0.694830 0.057444 1.245520
v 0.841390 0.057444 1.245520
v 0.694830 0.057444 1.416300
v -1.544070 0.623224 0.070811
v 0.804560 0.658802 1.373210
v 0.804560 0.658802 0.032306
v -1.544070 0.623224 1.344390
v -1.544070 0.623224 0.070811
v 1.110760 1.096200 0.032201
v -1.918720 1.096200 0.032201
v 0.804560 0.658802 0.032306
v 0.804560 0.658802 0.032306
v 1.110760 1.096200 1.373100
v 1.110760 1.096200 0.032201
v 0.804560 0.658802 1.373210
v 1.110760 1.096200 1.373100
v -1.544070 0.623224 1.344390
v -1.918720 1.096200 1.373100
v 0.804560 0.658802 1.373210
v -1.918720 1.096200 1.373100
v -1.544070 0.623224 0.070811
v -1.918720 1.096200 0.032201
v -1.544070 0.623224 1.344390
v -1.918720 1.096200 0.032201
v 1.183120 1.096200 -0.042248
v -1.991080 1.096200 -0.042248
v 1.110760 1.096200 0.032201
v 1.110760 1.096200 0.032201
v 1.183120 1.096200 1.447550
v 1.183120 1.096200 -0.042248
v 1.110760 1.096200 1.373100
v -1.991080 1.096200 1.447550
v 1.110760 1.096200 1.373100
v -1.918720 1.096200 1.373100
v 1.183120 1.096200 1.447550
v -1.991080 1.096200 1.447550
v -1.918720 1.096200 0.032201
v -1.991080 1.096200 -0.042248
v -1.918720 1.096200 1.373100
v 1.183120 1.096200 -0.042248
v 0.840000 0.337969 1.415000
v 0.840000 0.337969 -0.000000
v 1.183120 1.096200 1.447550
v -1.991080 1.096200 1.447550
v -1.614880 0.337969 -0.000000
v -1.614880 0.337969 1.415000
v -1.991080 1.096200 -0.042248
v 1.183120 1.096200 -0.042248
v -1.614880 0.337969 -0.000000
v -1.991080 1.096200 -0.042248
v 0.840000 0.337969 -0.000000
v -1.614880 0.337969 1.415000
v 1.183120 1.096200 1.447550
v -1.991080 1.096200 1.447550
v 0.840000 0.337969 1.415000
v 0.840000 0.337969 1.415000
v -1.614880 0.337969 -0.000000
v 0.840000 0.337969 -0.000000
v -1.614880 0.337969 1.415000
v 0.841390 0.057444 0.175120
v 0.694830 0.057444 0.004340
v 0.841390 0.057444 0.004340
v 0.694830 0.057444 0.175120
v 0.694830 0.339057 0.175120
v 0.841390 0.339057 0.004340
v 0.694830 0.339057 0.004340
v 0.841390 0.339057 0.175120
v 0.841390 0.057444 0.175120
v 0.694830 0.339057 0.175120
v 0.694830 0.057444 0.175120
v 0.841390 0.339057 0.175120
v 0.841390 0.339057 0.004340
v 0.694830 0.057444 0.004340
v 0.694830 0.339057 0.004340
v 0.841390 0.057444 0.004340
v 0.694830 0.339057 0.175120
v 0.694830 0.057444 0.004340
v 0.694830 0.057444 0.175120
v 0.694830 0.339057 0.004340
v 0.841390 0.339057 0.004340
v 0.841390 0.057444 0.175120
v 0.841390 0.057444 0.004340
v 0.841390 0.339057 0.175120
v -1.468460 0.057444 1.416300
v -1.615020 0.057444 1.245520
v -1.468460 0.057444 1.245520
v -1.615020 0.057444 1.416300
v -1.615020 0.339057 1.416300
v -1.468460 0.339057 1.245520
v -1.615020 0.339057 1.245520
v -1.468460 0.339057 1.416300
v -1.468460 0.057444 1.416300
v -1.615020 0.339057 1.416300
v -1.615020 0.057444 1.416300
v -1.468460 0.339057 1.416300
v -1.468460 0.339057 1.245520
v -1.615020 0.057444 1.245520
v -1.615020 0.339057 1.245520
v -1.468460 0.057444 1.245520
v -1.615020 0.339057 1.416300
v -1.615020 0.057444 1.245520
v -1.615020 0.057444 1.416300
v -1.615020 0.339057 1.245520
v -1.468460 0.339057 1.245520
v -1.468460 0.057444 1.416300
v -1.468460 0.057444 1.245520
v -1.468460 0.339057 1.416300
v -1.468460 0.339057 0.004340
v -1.468460 0.057444 0.175120
v -1.468460 0.057444 0.004340
v -1.468460 0.339057 0.175120
v -1.615020 0.339057 0.175120
v -1.615020 0.057444 0.004340
v -1.615020 0.057444 0.175120
v -1.615020 0.339057 0.004340
v -1.468460 0.339057 0.004340
v -1.615020 0.057444 0.004340
v -1.615020 0.339057 0.004340
v -1.468460 0.057444 0.004340
v -1.468460 0.057444 0.175120
v -1.615020 0.339057 0.175120
v -1.615020 0.057444 0.175120
v -1.468460 0.339057 0.175120
v -1.615020 0.339057 0.175120
v -1.468460 0.339057 0.004340
v -1.615020 0.339057 0.004340
v -1.468460 0.339057 0.175120
v -1.468460 0.057444 0.175120
v -1.615020 0.057444 0.004340
v -1.468460 0.057444 0.004340
v -1.615020 0.057444 0.175120
vt 0.011319 0.679339
vt 0.259493 0.424719
vt 0.011319 0.424719
vt 0.259493 0.679339
vt 0.001650 0.421481
vt 0.256270 0.676101
vt 0.001650 0.676101
vt 0.256270 0.421481
vt 0.251352 0.679324
vt 0.009625 0.418259
vt 0.009625 0.679324
vt 0.251352 0.418259
vt 0.256283 0.424719
vt 0.001664 0.679339
vt 0.001664 0.424719
vt 0.256283 0.679339
vt 1.000000 0.000000
vt 0.000000 1.000000
vt 0.000000 0.000000
vt 1.000000 1.000000
vt 0.008301 1.001170
vt 0.462748 0.698206
vt 0.462748 1.001170
vt 0.008301 0.698206
vt 0.339213 0.399521
vt 0.814270 0.580011
vt 0.276024 0.580011
vt 0.759869 0.399521
vt 0.530075 0.664346
vt 0.816981 0.996729
vt 0.501362 0.996729
vt 0.764417 0.661955
vt 0.811523 0.584717
vt 0.348034 0.394886
vt 0.286384 0.584717
vt 0.758446 0.394886
vt 0.818605 0.585617
vt 0.334350 0.402882
vt 0.286409 0.585617
vt 0.770744 0.401108
vt 0.852158 0.010566
vt 0.984440 0.993591
vt 0.849072 0.993591
vt 0.981354 0.010566
vt 0.855491 0.950072
vt 0.977967 0.000861
vt 0.977967 1.000000
vt 0.855491 0.050791
vt 0.990879 0.007343
vt 0.861747 0.990368
vt 0.987866 0.990368
vt 0.858735 0.007343
vt 0.858741 0.007343
vt 0.994109 0.941244
vt 0.858741 0.990368
vt 0.994109 0.056467
vt 0.497424 0.989494
vt 0.763411 0.659809
vt 0.523554 0.659809
vt 0.822633 0.989494
vt 0.817333 0.992592
vt 0.531899 0.666154
vt 0.751876 0.666154
vt 0.496218 0.992592
vt 0.827771 0.378210
vt 0.082926 0.014007
vt 0.002674 0.378210
vt 0.760423 0.014007
vt 0.081546 0.013353
vt 0.831419 0.367886
vt 0.003099 0.367886
vt 0.762403 0.010129
vt 0.469057 0.992314
vt 0.008163 0.702241
vt 0.469057 0.702241
vt 0.008163 0.992314
vt 0.103530 0.418437
vt 0.202175 0.418437
vt 0.157638 0.418437
vt 0.256282 0.418437
vt 0.256282 0.682725
vt 0.157638 0.682725
vt 0.202175 0.682725
vt 0.103530 0.682725
vt 0.266560 0.418437
vt 0.008717 0.682725
vt 0.008717 0.418437
vt 0.266560 0.682725
vt 0.009339 0.682725
vt 0.257513 0.418437
vt 0.257513 0.682725
vt 0.009339 0.418437
vt 0.254965 0.682725
vt 0.006792 0.418437
vt 0.254965 0.418437
vt 0.006792 0.682725
vt 0.256351 0.682725
vt 0.011400 0.418437
vt 0.256351 0.418437
vt 0.011400 0.682725
vt 0.006492 0.677727
vt 0.261111 0.426330
vt 0.261111 0.677727
vt 0.006492 0.426330
vt 0.256250 0.421459
vt 0.004854 0.679302
vt 0.004854 0.421459
vt 0.256250 0.679302
vt 0.001664 0.421482
vt 0.262730 0.676101
vt 0.001664 0.676101
vt 0.262730 0.421482
vt 0.009694 0.432784
vt 0.261091 0.674511
vt 0.009694 0.674511
vt 0.261091 0.432784
vt 0.000586 0.416905
vt 0.265234 0.684483
vt 0.000586 0.684483
vt 0.265234 0.416905
vt 0.006471 0.429561
vt 0.257868 0.671288
vt 0.006471 0.671288
vt 0.257868 0.429561
vt 0.262232 0.418161
vt 0.002929 0.681412
vt 0.002929 0.418161
vt 0.262232 0.681412
vt 0.004798 0.676146
vt 0.261586 0.422747
vt 0.261534 0.676093
vt 0.004850 0.422799
vn 1.000000 0.000000 0.000000
vn -1.000000 0.000000 0.000000
vn 0.000000 0.000000 -1.000000
vn 0.000000 0.000000 1.000000
vn 0.000000 1.000000 0.000000
vn 0.000000 -1.000000 0.000000
vn -0.015147 0.999885 -0.000000
vn 0.000000 0.081361 0.996685
vn 0.016563 -0.011355 0.999798
vn -0.819213 0.573489 -0.000000
vn 0.000000 0.060589 -0.998163
vn 0.012405 -0.008935 -0.999883
vn 0.783876 0.620918 -0.000000
vn 0.911058 -0.412278 0.000000
vn -0.895801 -0.444456 0.000000
vn 0.000000 -0.055633 -0.998451
vn 0.000000 -0.042889 0.999080
usemtl ac3dmat1_THMap.jpg
s off
f 1/1/1 2/2/1 3/3/1
f 2/2/1 1/1/1 4/4/1
f 5/5/2 6/6/2 7/7/2
f 6/6/2 5/5/2 8/8/2
f 9/9/3 10/10/3 11/11/3
f 10/10/3 9/9/3 12/12/3
f 13/13/4 14/14/4 15/15/4
f 14/14/4 13/13/4 16/16/4
f 17/17/5 18/18/5 19/19/5
f 18/18/5 17/17/5 20/20/5
f 21/20/6 22/19/6 23/17/6
f 22/19/6 21/20/6 24/18/6
f 25/21/7 26/22/7 27/23/7
f 26/22/7 25/21/7 28/24/7
f 29/25/8 30/26/8 31/27/8
f 30/26/9 29/25/9 32/28/9
f 33/29/10 34/30/10 35/31/10
f 34/30/10 33/29/10 36/32/10
f 37/33/11 38/34/11 39/35/11
f 38/34/12 37/33/12 40/36/12
f 41/37/13 42/38/13 43/39/13
f 42/38/13 41/37/13 44/40/13
f 45/41/5 46/42/5 47/43/5
f 46/42/5 45/41/5 48/44/5
f 49/45/5 50/46/5 51/47/5
f 50/46/5 49/45/5 52/48/5
f 53/49/5 54/50/5 55/51/5
f 54/50/5 53/49/5 56/52/5
f 57/53/5 58/54/5 59/55/5
f 58/54/5 57/53/5 60/56/5
f 61/57/14 62/58/14 63/59/14
f 62/58/14 61/57/14 64/60/14
f 65/61/15 66/62/15 67/63/15
f 66/62/15 65/61/15 68/64/15
f 69/65/16 70/66/16 71/67/16
f 70/66/16 69/65/16 72/68/16
f 73/69/17 74/70/17 75/71/17
f 74/70/17 73/69/17 76/72/17
f 77/73/6 78/74/6 79/75/6
f 78/74/6 77/73/6 80/76/6
f 81/77/6 82/78/6 83/79/6
f 82/78/6 81/77/6 84/80/6
f 85/81/5 86/82/5 87/83/5
f 86/82/5 85/81/5 88/84/5
f 89/85/4 90/86/4 91/87/4
f 90/86/4 89/85/4 92/88/4
f 93/89/3 94/90/3 95/91/3
f 94/90/3 93/89/3 96/92/3
f 97/93/2 98/94/2 99/95/2
f 98/94/2 97/93/2 100/96/2
f 101/97/1 102/98/1 103/99/1
f 102/98/1 101/97/1 104/100/1
f 105/20/6 106/19/6 107/17/6
f 106/19/6 105/20/6 108/18/6
f 109/17/5 110/18/5 111/19/5
f 110/18/5 109/17/5 112/20/5
f 113/101/4 114/102/4 115/103/4
f 114/102/4 113/101/4 116/104/4
f 117/105/3 118/106/3 119/107/3
f 118/106/3 117/105/3 120/108/3
f 121/109/2 122/110/2 123/111/2
f 122/110/2 121/109/2 124/112/2
f 125/113/1 126/114/1 127/115/1
f 126/114/1 125/113/1 128/116/1
f 129/117/1 130/118/1 131/119/1
f 130/118/1 129/117/1 132/120/1
f 133/121/2 134/122/2 135/123/2
f 134/122/2 133/121/2 136/124/2
f 137/125/3 138/126/3 139/127/3
f 138/126/3 137/125/3 140/128/3
f 141/129/4 142/130/4 143/131/4
f 142/130/4 141/129/4 144/132/4
f 145/17/5 146/18/5 147/19/5
f 146/18/5 145/17/5 148/20/5
f 149/20/6 150/19/6 151/17/6
f 150/19/6 149/20/6 152/18/6
