# Blender3D v246 OBJ File: 
# www.blender3d.org
o C:\online\_Material12
v 0.709722 -0.190375 -1.192290
v -0.770231 -0.190375 -1.192290
v 0.709722 0.192717 -1.192290
v -0.770231 0.192717 -1.192290
v 0.709722 0.192717 -1.192290
v -0.770231 0.192717 -1.192290
v 0.709722 0.192717 -0.397430
v -0.770231 0.192717 -0.397430
v 0.709722 -0.190375 -0.397430
v -0.770231 -0.190375 -0.397430
v 0.709722 -0.190375 -0.397430
v -0.770231 -0.190375 -0.397430
v -0.770231 -0.190375 -1.192290
v -0.770231 0.192717 -1.192290
v 0.709722 -0.190375 -0.397430
v 0.709722 0.192717 -0.397430
v 0.500787 0.192717 -1.192290
v 0.407927 0.192717 -1.192290
v 0.500787 0.277126 -1.192290
v 0.407927 0.277126 -1.192290
v 0.500787 0.277126 -1.192290
v 0.407927 0.277126 -1.192290
v 0.500787 0.277126 -0.397430
v 0.407927 0.277126 -0.397430
v 0.500787 0.277126 -0.397430
v 0.407927 0.277126 -0.397430
v 0.500787 0.192717 -0.397430
v 0.407927 0.192717 -0.397430
v 0.407927 0.192717 -1.192290
v 0.407927 0.192717 -0.397430
v 0.407927 0.277126 -1.192290
v 0.407927 0.277126 -0.397430
v 0.500787 0.192717 -0.397430
v 0.500787 0.192717 -1.192290
v 0.500787 0.277126 -0.397430
v 0.500787 0.277126 -1.192290
v -0.392988 0.192717 -1.192290
v -0.485848 0.192717 -1.192290
v -0.392988 0.277126 -1.192290
v -0.485848 0.277126 -1.192290
v -0.392988 0.277126 -1.192290
v -0.485848 0.277126 -1.192290
v -0.392988 0.277126 -0.397430
v -0.485848 0.277126 -0.397430
v -0.392988 0.277126 -0.397430
v -0.485848 0.277126 -0.397430
v -0.392988 0.192717 -0.397430
v -0.485848 0.192717 -0.397430
v -0.485848 0.192717 -1.192290
v -0.485848 0.192717 -0.397430
v -0.485848 0.277126 -1.192290
v -0.485848 0.277126 -0.397430
v -0.392988 0.192717 -0.397430
v -0.392988 0.192717 -1.192290
v -0.392988 0.277126 -0.397430
v -0.392988 0.277126 -1.192290
v -0.485848 -0.190375 -1.192290
v -0.392988 -0.190375 -1.192290
v -0.485848 -0.274784 -1.192290
v -0.392988 -0.274784 -1.192290
v -0.485848 -0.274784 -1.192290
v -0.392988 -0.274784 -1.192290
v -0.485848 -0.274784 -0.397430
v -0.392988 -0.274784 -0.397430
v -0.485848 -0.274784 -0.397430
v -0.392988 -0.274784 -0.397430
v -0.485848 -0.190375 -0.397430
v -0.392988 -0.190375 -0.397430
v -0.392988 -0.190375 -1.192290
v -0.392988 -0.190375 -0.397430
v -0.392988 -0.274784 -1.192290
v -0.392988 -0.274784 -0.397430
v -0.485848 -0.190375 -0.397430
v -0.485848 -0.190375 -1.192290
v -0.485848 -0.274784 -0.397430
v -0.485848 -0.274784 -1.192290
v 0.407927 -0.190375 -1.192290
v 0.500787 -0.190375 -1.192290
v 0.407927 -0.274784 -1.192290
v 0.500787 -0.274784 -1.192290
v 0.407927 -0.274784 -1.192290
v 0.500787 -0.274784 -1.192290
v 0.407927 -0.274784 -0.397430
v 0.500787 -0.274784 -0.397430
v 0.407927 -0.274784 -0.397430
v 0.500787 -0.274784 -0.397430
v 0.407927 -0.190375 -0.397430
v 0.500787 -0.190375 -0.397430
v 0.500787 -0.190375 -1.192290
v 0.500787 -0.190375 -0.397430
v 0.500787 -0.274784 -1.192290
v 0.500787 -0.274784 -0.397430
v 0.407927 -0.190375 -0.397430
v 0.407927 -0.190375 -1.192290
v 0.407927 -0.274784 -0.397430
v 0.407927 -0.274784 -1.192290
vt 0.015625 0.015625
vt 0.984375 0.015625
vt 0.015625 0.984375
vt 0.984375 0.984375
vt 0.437500 0.437500
vt 0.562500 0.437500
vt 0.437500 0.562500
vt 0.562500 0.562500
vt 0.992188 0.437500
vt 0.992188 0.562500
vt 0.007812 0.437500
vt 0.007812 0.562500
vt 0.992188 0.453125
vt 0.007812 0.453125
vt 0.992188 0.546875
vt 0.007812 0.546875
vn 0.000000 0.000000 -1.000000
vn 0.000000 1.000000 0.000000
vn 0.000000 0.000000 1.000000
vn 0.000000 -1.000000 0.000000
vn -1.000000 0.000000 0.000000
vn 1.000000 0.000000 0.000000
usemtl Material12_ammo11.bmp
s off
f 1/1/1 2/2/1 3/3/1
f 2/2/1 4/4/1 3/3/1
f 5/1/2 6/2/2 7/3/2
f 6/2/2 8/4/2 7/3/2
f 7/3/3 8/4/3 9/1/3
f 8/4/3 10/2/3 9/1/3
f 12/4/4 1/1/4 11/3/4
f 2/2/4 1/1/4 12/4/4
f 13/1/5 10/2/5 14/3/5
f 10/2/5 8/4/5 14/3/5
f 15/2/6 1/1/6 16/4/6
f 1/1/6 3/3/6 16/4/6
f 17/5/1 18/6/1 19/7/1
f 18/6/1 20/8/1 19/7/1
f 21/9/2 22/10/2 23/11/2
f 22/10/2 24/12/2 23/11/2
f 25/7/3 26/8/3 27/5/3
f 26/8/3 28/6/3 27/5/3
f 29/13/5 30/14/5 31/15/5
f 30/14/5 32/16/5 31/15/5
f 33/13/6 34/14/6 35/15/6
f 34/14/6 36/16/6 35/15/6
f 37/5/1 38/6/1 39/7/1
f 38/6/1 40/8/1 39/7/1
f 41/9/2 42/10/2 43/11/2
f 42/10/2 44/12/2 43/11/2
f 45/7/3 46/8/3 47/5/3
f 46/8/3 48/6/3 47/5/3
f 49/13/5 50/14/5 51/15/5
f 50/14/5 52/16/5 51/15/5
f 53/13/6 54/14/6 55/15/6
f 54/14/6 56/16/6 55/15/6
f 57/5/1 58/6/1 59/7/1
f 58/6/1 60/8/1 59/7/1
f 61/9/4 62/10/4 63/11/4
f 62/10/4 64/12/4 63/11/4
f 65/7/3 66/8/3 67/5/3
f 66/8/3 68/6/3 67/5/3
f 69/13/6 70/14/6 71/15/6
f 70/14/6 72/16/6 71/15/6
f 73/13/5 74/14/5 75/15/5
f 74/14/5 76/16/5 75/15/5
f 77/5/1 78/6/1 79/7/1
f 78/6/1 80/8/1 79/7/1
f 81/9/4 82/10/4 83/11/4
f 82/10/4 84/12/4 83/11/4
f 85/7/3 86/8/3 87/5/3
f 86/8/3 88/6/3 87/5/3
f 89/13/6 90/14/6 91/15/6
f 90/14/6 92/16/6 91/15/6
f 93/13/5 94/14/5 95/15/5
f 94/14/5 96/16/5 95/15/5
