# Blender3D v246 OBJ File: 
# www.blender3d.org
o VMtl01_VMtl01
v 2.820196 -2.329143 2.980170
v 3.557947 -1.700579 3.488221
v 3.718922 -1.758330 3.142308
v 3.962080 -1.756490 2.895828
v 4.054486 -1.461817 2.780391
v 3.606857 -1.170785 3.474137
v 2.389290 -2.327397 3.683014
v 3.122811 -1.312559 4.216466
v 3.219269 -1.549245 3.899739
v 3.367765 -1.438062 3.903918
v 3.093632 -1.618852 4.460830
v 3.175502 -1.625956 4.115824
v 2.838669 -1.870300 4.544412
v 2.375719 -1.748928 4.563081
v 2.418717 -2.192929 3.930932
v 3.168818 -1.767681 3.713622
v 3.171381 -1.696274 3.865181
v 2.654236 -1.658583 4.713869
v 3.065338 -1.710081 4.059616
v 3.421717 -1.578453 3.607933
v 2.985754 -1.724737 4.578359
v 2.958537 -1.642825 4.640561
v 3.597639 -0.213732 -0.586181
v 3.755700 -0.033636 -0.182906
v 4.283625 -0.604644 -0.070155
v 3.455537 -0.364847 -0.792879
v 3.445385 -0.148951 -0.858053
v 3.662268 -0.854665 -0.776194
v 3.857638 -1.026098 -0.279215
v 4.201451 -0.621078 0.958269
v 4.335193 -0.895603 0.630711
v 4.260126 -0.581196 0.221116
v 4.401769 -0.991820 0.648891
v 4.234776 -0.697469 0.050293
v 4.224185 -1.074358 0.444718
v 3.703946 -0.623021 3.147389
v 3.137021 -0.021693 3.580027
v 3.582760 0.214881 -0.622920
v 3.358197 0.784899 -0.507928
v 3.790334 0.602081 0.639288
v 2.667773 0.397203 2.795093
v 3.575030 0.694250 2.778772
v 3.546597 0.347659 3.130398
v 3.270401 1.625105 0.242931
v 2.801386 2.206570 1.142137
v 3.188874 1.950105 1.541461
v -3.985468 -2.345847 -3.743835
v -3.353591 -2.347245 -4.306349
v -2.262376 -2.347000 -4.207638
v -2.570386 -2.347577 -4.440053
v -4.354393 -1.425732 -3.936709
v -4.510344 -1.885031 -3.862895
v -2.511054 -2.088121 -4.704561
v -2.844897 -1.843488 -4.660470
v -3.897115 -1.522235 -4.273461
v -3.283767 -2.068694 -4.660257
v -4.210905 -1.993177 -4.189339
v -4.397129 -1.858231 -2.863719
v -4.371315 -1.974547 -3.038918
v -2.420750 -2.341780 -2.101856
v -3.570106 -2.341397 -1.952280
v -3.915345 -1.972810 -1.731644
v -3.878429 -2.117723 -1.914182
v -3.942925 -1.598334 -1.788214
v -3.701319 -1.258740 -1.773478
v -3.786058 -2.337739 -0.479749
v -3.715945 -2.339211 -1.072663
v -3.794506 -1.988499 -0.593729
v -3.702242 -1.779307 -0.256655
v -3.659929 -1.472449 -0.814756
v -2.458988 -2.333791 1.109273
v -3.164069 -2.334632 0.770854
v -3.631641 -2.336142 0.163020
v -3.200551 -2.131425 0.663613
v -4.135755 -1.159701 -3.891525
v -4.016295 -0.644290 -3.790536
v -3.627982 -0.861186 -4.067681
v -3.621289 -0.224502 -3.791267
v -4.200872 -0.880916 -3.461504
v -4.089984 -0.549967 -3.072949
v -3.454942 -0.143682 -2.085122
v -3.523710 -0.671652 -1.840837
v -3.205739 -0.750298 -1.141500
v -3.070847 0.378446 -3.598063
v -3.210180 0.694949 -3.068973
v -2.272780 1.127090 -2.439674
v -0.330484 -2.281429 -3.663416
v -0.888192 -2.346918 -4.174638
v -1.726462 -2.346918 -4.174834
v -1.460932 -2.347284 -4.322265
v -1.139191 -2.347159 -4.271938
v -1.527100 -1.559577 -4.248080
v -1.958713 -2.031548 -4.537088
v -1.523105 -2.125872 -4.440096
v -1.857346 -2.331988 1.835155
v -1.543802 -1.909069 1.805221
v -1.024632 -2.330329 2.502894
v -0.459776 -2.213292 2.908964
v -0.811536 -0.376342 -3.488014
v -0.909335 -0.880048 1.419869
v -2.076934 0.005644 -0.377364
v -2.063684 0.379473 -0.974293
v -0.861718 1.581443 -1.485564
v -0.216593 1.328780 -0.411042
v -0.172954 1.597461 -0.972523
v 1.760968 -1.890642 -2.448425
v 1.267321 -2.043308 -2.910676
v 1.231997 -2.340028 -1.401425
v 1.233981 -2.342294 -2.313471
v 0.562069 -2.329518 2.829376
v 0.111292 -2.329077 3.006872
v 1.339779 -2.328151 3.379481
v 0.081629 -2.173668 3.206847
v 0.390078 -1.918587 3.331249
v 1.937777 -1.891063 4.132632
v 1.186342 -1.918922 3.855283
v 1.548005 -1.793914 4.025500
v 1.603213 -1.661640 3.995312
v 1.818398 0.671276 -1.314543
v 0.392347 1.005214 -1.699475
v 1.298724 1.394549 -0.946528
v 1.108107 1.841205 -0.617905
v 0.711882 1.934895 -0.437500
v 1.582431 2.263290 0.006183
v 2.111571 2.337319 0.306223
v 2.419027 -1.266075 -1.708863
v 3.659213 -2.331419 2.064048
v 4.401993 -1.704995 2.289021
v 4.510344 -1.694509 1.826399
v 4.198255 -1.275003 2.267504
vt 0.904967 0.743407
vt 0.899624 0.774734
vt 0.877385 0.805721
vt 0.253690 0.852498
vt 0.260269 0.857588
vt 0.244325 0.858830
vt 0.221952 0.841590
vt 0.943722 0.575678
vt 0.903505 0.594802
vt 0.931396 0.554331
vt 0.242059 0.554154
vt 0.223584 0.542767
vt 0.714149 0.957206
vt 0.749327 0.948735
vt 0.211557 0.571001
vt 0.161310 0.543779
vt 0.158265 0.564253
vt 0.099369 0.550195
vt 0.044682 0.548866
vt 0.088096 0.621726
vt 0.159117 0.582812
vt 0.193773 0.610515
vt 0.142213 0.643797
vt 0.155511 0.614908
vt 0.088483 0.689766
vt 0.170995 0.466972
vt 0.058875 0.433592
vt 0.142703 0.427492
vt 0.181372 0.491340
vt 0.063654 0.479412
vt 0.299790 0.870792
vt 0.290410 0.902454
vt 0.288457 0.879023
vt 0.303328 0.882601
vt 0.042320 0.344019
vt 0.232155 0.831846
vt 0.220970 0.836329
vt 0.912457 0.545500
vt 0.898967 0.532161
vt 0.325975 0.031290
vt 0.951455 0.684432
vt 0.966637 0.643210
vt 0.922775 0.728113
vt 0.915932 0.745034
vt 0.840840 0.851401
vt 0.157653 0.025298
vt 0.801114 0.884406
vt 0.782593 0.923085
vt 0.292376 0.534784
vt 0.235696 0.651727
vt 0.203078 0.672239
vt 0.874088 0.374191
vt 0.378404 0.277138
vt 0.324837 0.305963
vt 0.348334 0.280207
vt 0.408880 0.411797
vt 0.285880 0.370530
vt 0.271768 0.834582
vt 0.865765 0.508028
vt 0.853367 0.548776
vt 0.941971 0.618441
vt 0.952027 0.575537
vt 0.386199 0.038593
vt 0.412483 0.128211
vt 0.328980 0.038524
vt 0.386936 0.151212
vt 0.656096 0.074577
vt 0.394210 0.250328
vt 0.990214 0.619185
vt 0.535510 0.968145
vt 0.470946 0.282257
vt 0.511933 0.798236
vt 0.506608 0.812005
vt 0.497435 0.833066
vt 0.396579 0.290502
vt 0.833595 0.227988
vt 0.740077 0.162703
vt 0.723646 0.133676
vt 0.084979 0.909201
vt 0.588551 0.053394
vt 0.002601 0.800206
vt 0.633560 0.945360
vt 0.681700 0.953360
vt 0.151300 0.535883
vt 0.089765 0.543861
vt 0.420472 0.278194
vt 0.453863 0.308008
vt 0.439211 0.344109
vt 0.438847 0.378870
vt 0.048811 0.616668
vt 0.821810 0.296784
vt 0.764403 0.210459
vt 0.989176 0.593789
vt 0.925359 0.676014
vt 0.895253 0.718678
vt 0.043214 0.588512
vt 0.040705 0.573978
vt 0.793730 0.259000
vt 0.084181 0.856147
vt 0.066374 0.826164
vt 0.104381 0.810352
vt 0.411709 0.057573
vt 0.425045 0.050756
vt 0.012434 0.801541
vt 0.991054 0.585720
vt 0.192194 0.081591
vt 0.763038 0.261394
vt 0.663707 0.681927
vt 0.613792 0.681818
vt 0.606468 0.652909
vt 0.840448 0.502085
vt 0.962666 0.581354
vt 0.955557 0.616826
vt 0.031317 0.801200
vt 0.497407 0.890517
vt 0.427982 0.043123
vt 0.510127 0.873621
vt 0.539920 0.767641
vt 0.581149 0.679989
vt 0.647027 0.616809
vt 0.416960 0.044679
vt 0.132425 0.820632
vt 0.066786 0.603691
vt 0.511922 0.844221
vt 0.503854 0.829655
vt 0.221279 0.923445
vt 0.504725 0.933482
vt 0.203988 0.856550
vt 0.266362 0.888811
vt 0.625373 0.882308
vn -0.256211 -0.773726 0.579400
vn 0.929240 -0.354677 0.103522
vn 0.986415 0.023755 -0.162548
vn 0.391625 -0.810983 0.434668
vn -0.971019 0.052600 0.233143
vn -0.950395 0.292802 0.104963
vn -0.954767 0.285129 0.084385
vn -0.920424 -0.008750 0.390825
vn -0.958895 -0.027966 0.282379
vn -0.964591 0.242898 0.102781
vn -0.802005 0.561784 0.202944
vn -0.807440 0.567456 0.161351
vn -0.800194 0.577112 0.163190
vn -0.853045 0.306519 0.422327
vn -0.853034 0.306523 0.422347
vn -0.872089 0.270012 0.408110
vn -0.853043 0.306523 0.422328
vn -0.785134 0.553984 0.276888
vn 0.333290 0.606685 -0.721700
vn 0.337037 0.646699 -0.684242
vn 0.830303 -0.018919 -0.556991
vn 0.909724 -0.080206 -0.407394
vn 0.672633 0.271860 -0.688227
vn 0.690760 0.268674 -0.671316
vn 0.918011 -0.298729 -0.260798
vn 0.648110 0.317673 -0.692125
vn 0.431473 -0.798552 0.419697
vn -0.321055 -0.296074 0.899591
vn -0.484632 0.167305 0.858569
vn -0.555718 0.460968 0.691871
vn -0.656032 0.524763 0.542444
vn -0.780391 0.176475 0.599872
vn -0.402407 0.369728 0.837478
vn -0.779341 0.311118 0.543906
vn -0.693534 0.652200 0.306015
vn -0.681674 0.610908 0.402632
vn -0.678225 0.629482 0.379162
vn -0.678224 0.629483 0.379162
vn -0.659943 0.384586 0.645421
vn -0.599169 0.676747 0.427796
vn 0.241510 0.336491 -0.910190
vn 0.175431 0.435824 -0.882769
vn 0.191536 0.445838 -0.874381
vn 0.776557 -0.465806 -0.424245
vn 0.448599 -0.857333 0.252464
vn 0.491239 -0.744723 0.451743
vn 0.456707 -0.818242 0.349140
vn 0.543236 -0.769866 0.334965
vn -0.455281 0.593810 0.663407
vn -0.475210 0.613431 0.630775
vn -0.488682 0.614012 0.619822
vn 0.372679 0.125975 -0.919369
vn 0.125115 -0.281328 -0.951420
vn 0.413531 0.353238 -0.839175
vn 0.467987 0.348222 -0.812237
vn 0.646656 0.748533 -0.146745
vn -0.570790 -0.404784 0.714387
vn -0.185284 0.291507 0.938453
vn -0.591937 -0.750289 -0.294408
vn 0.353829 0.201937 -0.913251
vn 0.515458 0.278429 -0.810420
vn 0.270211 0.310881 -0.911230
vn 0.206264 0.439088 -0.874447
vn 0.269802 0.713286 -0.646862
vn 0.222038 0.693633 -0.685253
vn 0.336500 0.622036 -0.706993
vn 0.336482 0.607761 -0.719309
vn 0.337175 0.647034 -0.683856
vn 0.289493 0.676262 -0.677394
vn 0.342813 0.620466 -0.705338
vn 0.492096 0.825295 -0.277001
vn 0.138433 0.699711 0.700886
vn 0.173403 0.525719 0.832797
vn -0.592244 -0.799994 -0.096206
vn -0.568977 -0.809231 0.146326
vn -0.054298 0.104875 -0.993002
vn -0.206033 0.400663 -0.892759
vn -0.219016 0.370193 -0.902767
vn -0.394208 0.369471 -0.841482
vn 0.216697 0.717395 -0.662108
vn 0.177939 0.770213 -0.612461
vn -0.258921 0.498288 -0.827447
vn -0.044764 0.842969 -0.536097
vn -0.154119 -0.695768 0.701537
vn -0.356135 -0.762140 0.540657
vn -0.361702 -0.778271 0.513289
vn -0.671460 -0.724116 0.157473
vn -0.373262 -0.926959 -0.037725
vn -0.445902 0.493320 -0.746865
vn -0.532617 0.657144 -0.533367
vn -0.043031 0.852344 -0.521208
vn 0.310698 0.840770 -0.443365
vn 0.060262 0.796305 -0.601886
vn 0.681238 0.123062 0.721644
vn 0.857854 0.142475 0.493748
vn 0.826647 0.241493 0.508267
vn 0.808180 0.253251 0.531704
vn 0.766479 0.259245 0.587623
vn 0.738501 0.244035 0.628540
vn 0.706672 0.398899 0.584376
vn 0.228967 -0.478875 0.847498
vn 0.314809 -0.505459 0.803372
vn -0.512018 0.637008 0.576245
vn -0.398627 0.545561 0.737197
vn -0.459846 0.640939 0.614605
vn -0.500154 0.652507 0.569280
vn -0.493932 0.773928 0.396315
vn -0.484145 0.694266 0.532539
vn -0.504968 0.722028 0.472952
vn -0.555438 0.658418 0.507912
vn -0.161562 0.412283 -0.896616
vn -0.114769 0.396619 -0.910781
vn 0.651233 -0.758871 0.003302
vn 0.616755 -0.776869 0.126840
vn 0.548983 -0.799847 0.242618
vn 0.536716 -0.766753 0.352173
vn 0.503863 -0.784654 0.361164
vn 0.597567 -0.801720 0.012565
vn -0.247068 0.785763 0.567040
vn -0.201460 0.655307 0.728002
vn -0.357329 0.831697 0.424966
vn -0.507356 0.792014 0.339564
vn -0.454019 0.271506 -0.848617
vn -0.513694 0.438672 -0.737350
vn -0.440003 0.134582 -0.887854
vn -0.547710 0.220788 -0.807011
vn 0.268466 -0.717104 -0.643185
vn 0.517192 -0.230919 0.824129
vn 0.649474 -0.692038 0.315066
vn 0.592151 -0.804642 0.043693
vn 0.682872 -0.719507 0.126477
vn -0.310998 0.866496 0.390466
vn -0.787856 0.557627 -0.261411
vn -0.718719 0.676006 -0.162663
vn -0.709027 0.129336 -0.693219
vn 0.348801 -0.816414 -0.460224
vn -0.001996 -0.721365 -0.692553
vn 0.320316 -0.854120 -0.409727
vn 0.557709 -0.754262 -0.346481
vn 0.674083 -0.738276 0.023686
vn 0.538044 -0.754921 -0.374970
vn 0.710732 0.051948 0.701543
vn 0.812521 -0.380481 0.441637
vn 0.738005 -0.117050 0.664566
vn 0.639824 -0.038663 0.767548
vn 0.826737 -0.061457 0.559222
vn 0.826703 -0.369073 0.424672
vn 0.826704 -0.369073 0.424672
vn 0.594559 -0.788103 -0.159355
vn 0.644309 -0.752462 -0.136626
vn 0.788303 -0.582200 0.199053
vn 0.798267 -0.172887 0.576957
vn 0.956060 -0.227249 0.185223
vn 0.911336 0.232096 0.339997
vn -0.948136 0.313412 -0.053014
vn -0.058214 -0.706124 -0.705691
vn -0.416504 -0.515486 -0.748865
vn 0.549954 -0.726036 -0.412823
vn 0.546501 -0.701821 -0.456930
vn 0.597973 -0.720665 -0.350813
vn 0.455366 -0.773207 -0.441355
vn 0.734636 0.376333 0.564520
vn 0.896764 0.384648 0.218772
vn 0.980550 0.160916 0.112375
vn 0.994874 0.019121 0.099294
vn 0.928802 0.362304 0.077861
vn -0.534437 0.721617 0.440052
vn -0.572181 0.730638 0.372528
vn -0.107519 -0.770826 -0.627907
vn 0.038208 -0.781879 -0.622258
vn 0.723151 -0.561724 -0.401894
vn 0.736874 -0.646060 -0.199053
vn 0.728089 -0.507160 -0.461167
vn 0.915386 0.377194 0.140688
vn 0.878268 0.426917 0.215377
vn 0.917371 0.355187 0.179645
vn 0.696732 0.711155 0.093932
vn 0.733812 0.679337 0.004517
vn 0.938080 0.253815 -0.235764
vn 0.877125 0.399364 -0.266757
vn 0.894994 0.345585 -0.282058
vn 0.898338 0.436126 -0.052754
vn -0.448278 0.621528 0.642457
vn -0.578675 0.517018 0.630736
vn -0.566662 0.521452 0.637952
vn -0.516501 0.554559 0.652450
vn -0.359068 0.656366 0.663517
vn -0.558941 0.550864 0.619786
vn -0.457633 0.718138 0.524261
vn -0.393437 -0.807251 -0.439946
vn -0.370587 -0.692919 -0.618490
vn -0.530826 0.342988 0.774973
vn -0.500726 0.412292 0.761111
vn -0.504483 0.386738 0.771966
vn -0.542087 -0.177721 0.821314
vn 0.139361 -0.434432 -0.889858
vn 0.588633 0.412829 -0.695042
vn 0.396543 0.182957 -0.899600
vn 0.528251 0.209155 -0.822925
vn 0.543689 0.427984 -0.721964
vn 0.524195 0.361001 -0.771296
vn 0.499051 0.318733 -0.805827
vn 0.523245 0.322748 -0.788700
vn 0.000000 -0.999997 0.002484
vn -0.000001 -0.999997 0.002487
vn -0.000000 -0.999997 0.002487
vn 0.000001 -0.999997 0.002485
vn -0.000004 -0.999997 0.002488
vn 0.000001 -0.999997 0.002484
vn -0.000002 -0.999997 0.002488
vn 0.000004 -0.999997 0.002482
vn -0.000004 -0.999997 0.002487
vn -0.000007 -0.999997 0.002486
vn -0.000010 -0.999997 0.002483
vn 0.000003 -0.999997 0.002484
vn -0.002576 -0.999112 -0.042062
vn 0.068378 -0.996249 0.053026
vn -0.000001 -0.999997 0.002478
vn -0.000010 -0.999997 0.002486
vn 0.000000 -0.999997 0.002485
vn -0.000001 -0.999997 0.002486
vn 0.934278 0.344208 0.092987
vn 0.460423 -0.638133 0.617088
vn 0.969471 0.089710 0.228208
vn -0.189812 -0.809470 0.555635
vn -0.272892 -0.795893 0.540448
vn -0.312231 -0.819056 0.481311
vn -0.185481 -0.791711 0.582058
vn -0.175520 -0.773658 0.608808
vn -0.256004 -0.781314 0.569220
vn -0.632659 0.602578 -0.486458
vn -0.909420 0.272361 -0.314286
vn 0.826826 0.548959 -0.122487
vn 0.242407 -0.748295 0.617489
vn 0.299161 -0.685481 0.663791
vn -0.991177 -0.062180 -0.117053
vn -0.932985 -0.348912 0.088311
vn -0.935998 -0.339021 0.094722
vn -0.774735 -0.573371 0.266519
vn -0.786236 -0.551462 0.278789
vn -0.919474 -0.376177 0.114274
vn -0.958777 0.282205 0.033255
vn -0.870263 0.468872 -0.150998
vn 0.985562 0.019799 -0.168153
vn 0.681504 0.530555 -0.504048
vn 0.586766 0.628456 -0.510636
usemtl VMtl01_WHITES~2.JPG
s off
f 111/1/1 98/2/1 97/3/1
f 34/4/2 25/5/2 32/6/2
f 31/7/3 34/4/3 32/6/3
f 16/8/4 1/9/4 2/10/4
f 69/11/5 68/12/5 66/13/5
f 66/13/5 73/14/5 69/11/5
f 70/15/6 62/16/6 68/12/6
f 70/15/7 68/12/7 69/11/7
f 64/17/8 58/18/8 62/16/8
f 62/16/9 70/15/9 64/17/9
f 52/19/10 58/18/10 80/20/10
f 65/21/11 58/18/11 64/17/11
f 64/17/12 70/15/12 65/21/12
f 70/15/13 83/22/13 65/21/13
f 80/20/14 65/21/14 81/23/14
f 65/21/15 82/24/15 81/23/15
f 80/20/16 58/18/16 65/21/16
f 83/22/17 82/24/17 65/21/17
f 81/23/18 85/25/18 80/20/18
f 121/26/19 39/27/19 119/28/19
f 39/27/20 122/29/20 44/30/20
f 26/31/21 38/32/21 23/33/21
f 38/32/22 26/31/22 27/34/22
f 28/35/23 23/33/23 25/5/23
f 23/33/24 28/35/24 26/31/24
f 31/7/25 35/36/25 34/4/25
f 35/36/26 31/7/26 33/37/26
f 3/38/27 1/9/27 4/39/27
f 117/40/28 116/41/28 115/42/28
f 114/43/29 98/2/29 113/44/29
f 95/45/30 97/3/30 96/46/30
f 96/46/31 71/47/31 95/45/31
f 72/48/32 74/49/32 73/14/32
f 74/49/33 72/48/33 71/47/33
f 73/14/34 74/49/34 69/11/34
f 69/11/35 101/50/35 70/15/35
f 83/22/36 70/15/36 101/50/36
f 101/50/37 82/24/37 83/22/37
f 101/50/38 102/51/38 82/24/38
f 102/51/39 81/23/39 82/24/39
f 86/52/40 85/25/40 81/23/40
f 53/53/41 92/54/41 93/55/41
f 53/53/42 84/56/42 92/54/42
f 84/56/43 99/57/43 92/54/43
f 34/4/44 35/36/44 29/58/44
f 1/9/45 128/59/45 4/39/45
f 128/59/46 1/9/46 127/60/46
f 2/10/47 1/9/47 3/38/47
f 7/61/48 1/9/48 17/62/48
f 18/63/49 37/64/49 118/65/49
f 41/66/50 114/43/50 118/65/50
f 118/65/51 37/64/51 41/66/51
f 28/35/52 119/28/52 26/31/52
f 26/31/53 119/28/53 27/34/53
f 39/27/54 27/34/54 119/28/54
f 27/34/55 39/27/55 38/32/55
f 46/67/56 44/30/56 45/68/56
f 115/42/57 14/69/57 118/65/57
f 115/42/58 118/65/58 117/40/58
f 47/70/59 52/19/59 57/71/59
f 92/54/60 88/72/60 91/73/60
f 94/74/61 92/54/61 91/73/61
f 92/54/62 94/74/62 93/55/62
f 53/53/63 54/75/63 84/56/63
f 86/52/64 99/57/64 84/56/64
f 86/52/65 120/76/65 99/57/65
f 120/76/66 119/28/66 99/57/66
f 121/26/67 119/28/67 120/76/67
f 122/29/68 39/27/68 121/26/68
f 124/77/69 125/78/69 122/29/69
f 44/30/70 122/29/70 125/78/70
f 44/30/71 125/78/71 45/68/71
f 43/79/72 42/80/72 37/64/72
f 22/81/73 37/64/73 18/63/73
f 61/82/74 67/83/74 63/84/74
f 59/85/75 61/82/75 63/84/75
f 53/53/76 56/86/76 54/75/76
f 55/87/77 54/75/77 56/86/77
f 54/75/78 55/87/78 77/88/78
f 78/89/79 77/88/79 76/90/79
f 120/76/80 86/52/80 103/91/80
f 120/76/81 123/92/81 121/26/81
f 121/26/82 123/92/82 122/29/82
f 122/29/83 123/92/83 124/77/83
f 14/69/84 13/93/84 18/63/84
f 112/94/85 116/41/85 114/43/85
f 112/94/86 114/43/86 110/95/86
f 52/19/87 47/70/87 61/82/87
f 61/82/88 59/85/88 52/19/88
f 75/96/89 55/87/89 51/97/89
f 85/25/90 84/56/90 78/89/90
f 84/56/91 85/25/91 86/52/91
f 105/98/92 120/76/92 103/91/92
f 123/92/93 120/76/93 105/98/93
f 36/99/94 43/79/94 37/64/94
f 36/99/95 6/100/95 5/101/95
f 37/64/96 22/81/96 8/102/96
f 37/64/97 8/102/97 10/103/97
f 37/64/98 10/103/98 6/100/98
f 6/100/99 36/99/99 37/64/99
f 8/102/100 22/81/100 11/104/100
f 22/81/101 18/63/101 13/93/101
f 22/81/102 13/93/102 21/105/102
f 46/67/103 114/43/103 41/66/103
f 100/106/104 46/67/104 45/68/104
f 101/50/105 100/106/105 124/77/105
f 124/77/106 100/106/106 45/68/106
f 104/107/107 124/77/107 123/92/107
f 104/107/108 101/50/108 124/77/108
f 101/50/109 104/107/109 103/91/109
f 103/91/110 86/52/110 81/23/110
f 77/88/111 84/56/111 54/75/111
f 78/89/112 84/56/112 77/88/112
f 108/108/113 109/109/113 106/110/113
f 127/60/114 129/111/114 128/59/114
f 19/112/115 15/113/115 17/62/115
f 7/61/116 17/62/116 15/113/116
f 17/62/117 1/9/117 16/8/117
f 12/114/118 13/93/118 15/113/118
f 42/80/119 41/66/119 37/64/119
f 42/80/120 46/67/120 41/66/120
f 124/77/121 45/68/121 125/78/121
f 104/107/122 123/92/122 105/98/122
f 75/96/123 76/90/123 77/88/123
f 77/88/124 55/87/124 75/96/124
f 55/87/125 56/86/125 57/71/125
f 55/87/126 57/71/126 51/97/126
f 93/55/127 50/115/127 53/53/127
f 20/116/128 16/8/128 2/10/128
f 20/116/129 17/62/129 16/8/129
f 12/114/130 15/113/130 19/112/130
f 21/105/131 13/93/131 12/114/131
f 104/107/132 105/98/132 103/91/132
f 80/20/133 85/25/133 78/89/133
f 80/20/134 78/89/134 76/90/134
f 51/97/135 57/71/135 52/19/135
f 49/117/136 50/115/136 93/55/136
f 49/117/137 93/55/137 94/74/137
f 87/118/138 107/119/138 109/109/138
f 106/110/139 109/109/139 107/119/139
f 126/120/140 108/108/140 106/110/140
f 127/60/141 108/108/141 29/58/141
f 5/101/142 3/38/142 4/39/142
f 3/38/143 5/101/143 2/10/143
f 6/100/144 17/62/144 20/116/144
f 6/100/145 20/116/145 2/10/145
f 6/100/146 2/10/146 5/101/146
f 9/121/147 19/112/147 17/62/147
f 17/62/148 6/100/148 9/121/148
f 9/121/149 6/100/149 10/103/149
f 12/114/150 19/112/150 9/121/150
f 21/105/151 12/114/151 11/104/151
f 11/104/152 22/81/152 21/105/152
f 4/39/153 130/122/153 5/101/153
f 36/99/154 5/101/154 130/122/154
f 51/97/155 52/19/155 79/123/155
f 56/86/156 53/53/156 50/115/156
f 89/124/157 94/74/157 90/125/157
f 28/35/158 108/108/158 126/120/158
f 108/108/159 28/35/159 29/58/159
f 127/60/160 29/58/160 35/36/160
f 127/60/161 35/36/161 129/111/161
f 130/122/162 4/39/162 128/59/162
f 130/122/163 40/126/163 36/99/163
f 40/126/164 43/79/164 36/99/164
f 42/80/165 43/79/165 40/126/165
f 42/80/166 40/126/166 46/67/166
f 103/91/167 102/51/167 101/50/167
f 81/23/168 102/51/168 103/91/168
f 56/86/169 50/115/169 48/127/169
f 49/117/170 94/74/170 89/124/170
f 33/37/171 129/111/171 35/36/171
f 25/5/172 34/4/172 29/58/172
f 25/5/173 29/58/173 28/35/173
f 30/128/174 129/111/174 33/37/174
f 130/122/175 128/59/175 129/111/175
f 129/111/175 30/128/175 130/122/175
f 30/128/176 40/126/176 130/122/176
f 24/129/177 30/128/177 32/6/177
f 24/129/178 32/6/178 25/5/178
f 30/128/179 24/129/179 40/126/179
f 38/32/180 39/27/180 40/126/180
f 44/30/181 40/126/181 39/27/181
f 46/67/182 40/126/182 44/30/182
f 114/43/183 46/67/183 100/106/183
f 101/50/184 97/3/184 100/106/184
f 100/106/185 97/3/185 98/2/185
f 114/43/186 100/106/186 98/2/186
f 101/50/187 96/46/187 97/3/187
f 69/11/188 96/46/188 101/50/188
f 96/46/189 69/11/189 74/49/189
f 57/71/190 48/127/190 47/70/190
f 48/127/191 57/71/191 56/86/191
f 18/63/192 118/65/192 14/69/192
f 114/43/193 116/41/193 117/40/193
f 114/43/194 117/40/194 118/65/194
f 71/47/195 96/46/195 74/49/195
f 91/73/196 90/125/196 94/74/196
f 92/54/197 87/118/197 88/72/197
f 99/57/198 107/119/198 87/118/198
f 87/118/199 92/54/199 99/57/199
f 99/57/200 106/110/200 107/119/200
f 106/110/201 99/57/201 126/120/201
f 119/28/202 28/35/202 126/120/202
f 99/57/203 119/28/203 126/120/203
f 97/3/204 110/95/204 111/1/204
f 110/95/205 97/3/205 60/130/205
f 112/94/204 1/9/204 7/61/204
f 110/95/204 1/9/204 112/94/204
f 60/130/206 1/9/206 110/95/206
f 127/60/207 1/9/207 60/130/207
f 71/47/208 60/130/208 97/3/208
f 97/3/209 95/45/209 71/47/209
f 72/48/210 60/130/210 71/47/210
f 108/108/211 127/60/211 60/130/211
f 73/14/212 60/130/212 72/48/212
f 60/130/213 73/14/213 66/13/213
f 60/130/214 66/13/214 67/83/214
f 67/83/214 61/82/214 60/130/214
f 108/108/215 60/130/215 109/109/215
f 109/109/216 60/130/216 87/118/216
f 87/118/217 60/130/217 88/72/217
f 60/130/218 47/70/218 88/72/218
f 47/70/219 60/130/219 61/82/219
f 89/124/204 88/72/204 47/70/204
f 48/127/204 49/117/204 47/70/204
f 49/117/220 89/124/220 47/70/220
f 49/117/204 48/127/204 50/115/204
f 88/72/204 89/124/204 90/125/204
f 90/125/221 91/73/221 88/72/221
f 30/128/222 31/7/222 32/6/222
f 8/102/223 9/121/223 10/103/223
f 11/104/224 12/114/224 8/102/224
f 8/102/224 12/114/224 9/121/224
f 13/93/225 14/69/225 15/113/225
f 115/42/226 15/113/226 14/69/226
f 15/113/227 115/42/227 7/61/227
f 7/61/228 115/42/228 116/41/228
f 116/41/229 112/94/229 7/61/229
f 98/2/230 111/1/230 113/44/230
f 79/123/231 75/96/231 51/97/231
f 76/90/232 75/96/232 79/123/232
f 31/7/233 30/128/233 33/37/233
f 113/44/234 111/1/234 110/95/234
f 110/95/235 114/43/235 113/44/235
f 68/12/236 67/83/236 66/13/236
f 62/16/237 63/84/237 67/83/237
f 62/16/238 67/83/238 68/12/238
f 58/18/239 59/85/239 63/84/239
f 62/16/240 58/18/240 63/84/240
f 58/18/241 52/19/241 59/85/241
f 52/19/242 80/20/242 79/123/242
f 79/123/243 80/20/243 76/90/243
f 38/32/244 40/126/244 23/33/244
f 23/33/245 24/129/245 25/5/245
f 23/33/246 40/126/246 24/129/246
